<svg width="110" height="92" viewBox="0 0 110 92" fill="none" xmlns="http://www.w3.org/2000/svg">
<path d="M64.8775 78.7972L64.8776 78.7967C65.6889 72.4973 63.6163 66.0589 60.5488 60.3632L60.5408 60.3484L60.5341 60.3331C60.4479 60.1377 60.3156 59.9671 60.1497 59.8364C59.9648 59.7292 59.6883 59.7419 59.2929 59.8314L59.2925 59.8314C55.6312 60.6565 52.448 63.3254 50.9271 66.7856C50.814 67.0576 50.7057 67.3321 50.6021 67.609L49.8012 67.3185C49.9045 67.0246 50.0188 66.7353 50.1436 66.451C52.0444 61.8821 55.231 57.9846 59.3166 55.2452C57.5603 46.7583 54.5971 38.5622 50.5201 30.9144C45.3108 32.0068 40.5243 34.5684 36.7112 38.3087L35.7382 39.2631L35.9946 37.9245C36.5366 35.0941 38.17 32.8353 40.2424 30.959C42.1822 29.2029 44.5289 27.7621 46.7749 26.4878C45.4211 24.8482 44.2143 23.1015 43.0376 21.3509C42.8254 21.0353 42.6143 20.7196 42.4035 20.4044C41.3471 18.8249 40.2984 17.2568 39.1607 15.7546C30.8644 4.80026 17.6816 -2.21688 4.16036 -2.93496C5.66872 -0.896577 7.12361 0.955455 8.60864 2.84585C8.70764 2.97188 8.80678 3.09808 8.90608 3.22451C10.6662 5.46572 12.4746 7.77937 14.4603 10.5267L14.4603 10.5266L14.4651 10.5335L20.7268 19.5639L20.7362 19.5774L20.7445 19.5917L26.3779 29.23L26.3781 29.2299L26.3845 29.2417L37.9329 50.5124C40.9382 55.7918 44.1497 62.8637 46.6456 69.1013C48.5164 73.7765 50.3055 79.2146 51.6574 83.8234C52.914 88.1069 53.806 91.7173 54.0233 93.3282C57.2867 93.94 59.7669 91.9348 61.5799 88.9004C63.4428 85.7825 64.5064 81.7096 64.8775 78.7972Z" stroke="#EF5A3C" stroke-width="0.851955"/>
<path d="M29.7124 14.0772C32.4346 15.8021 35.0639 17.6747 37.5885 19.6867C33.0563 23.8617 31.2885 32.1421 31.6075 38.386C29.206 34.6735 26.5863 30.1323 26.2232 28.2904C26.0222 27.2698 29.1792 13.7384 29.7124 14.0772Z" fill="#FEA255"/>
<path d="M54.0241 91.3305L47.3605 74.258C47.3605 74.258 47.549 72.6339 51.4131 69.0782C55.2772 65.5225 58.1074 63.0326 58.1074 63.0326C58.1074 63.0326 56.5369 68.3494 58.2964 70.9613C60.056 73.5732 63.1387 77.8863 62.9391 79.383C61.8834 87.2291 54.0241 91.3305 54.0241 91.3305Z" fill="#FEA255"/>
<path d="M3.93986 42.7533C10.7797 39.3707 19.1205 39.1736 26.1895 42.2519L25.9168 43.0559C18.9887 41.3374 11.3391 43.1925 6.00484 47.864C8.13135 57.0027 11.4777 65.8173 15.9506 74.0632C22.4783 70.7586 29.8615 69.5318 37.1383 70.5475L37.1368 71.3915C30.8727 72.243 24.985 74.838 20.1247 78.886C22.4242 83.2917 25.5813 87.1852 29.4025 90.3286C32.127 87.9402 35.3489 86.1989 38.8363 85.2322L39.209 85.981L31.954 91.5341C37.8087 96.4069 46.6273 97.2836 53.157 93.5893C53.5789 93.35 54.011 93.1132 54.4461 92.8769C53.5353 90.2655 52.6124 87.6601 51.6706 85.0605C48.0339 75.0596 44.1089 65.1559 39.7144 55.4727C30.364 34.8709 18.7633 15.122 3.8299 -1.7595C4.09121 4.83918 3.28145 11.4266 1.43139 17.7391C5.44744 17.9001 9.44306 18.4575 13.3614 19.4036L13.2758 20.2434L1.48676 20.6407C1.41399 28.0755 2.23782 35.5013 3.93986 42.7533Z" stroke="#EF5A3C" stroke-width="0.851955"/>
<path d="M48.6615 49.7675C49.3793 48.7822 50.241 47.7741 51.4328 47.5263C51.941 48.1527 51.3064 49.0321 50.7186 49.5667C48.2048 51.86 46.2177 54.3274 44.6016 57.3193C45.0603 54.6911 47.1276 51.8744 48.6615 49.7675Z" fill="#FD8927"/>
<path d="M26.6827 13.0259C26.8408 12.3253 27.1421 11.5078 27.84 11.3694C27.8986 11.3534 27.9601 11.3503 28.0203 11.3602C28.0805 11.3701 28.1381 11.3929 28.1892 11.4269C28.3481 11.555 28.3244 11.8002 28.2807 11.9985C27.5223 15.6416 26.7456 19.2805 26.0068 22.9274C25.6804 19.6058 25.9089 16.2583 26.6827 13.0259Z" fill="#FAB661"/>
<path d="M30.022 81.4951C30.7025 80.6037 31.7191 80.0483 32.7339 79.5848C36.5444 77.825 40.6977 76.9348 44.9029 76.9766C45.8813 76.9872 48.5233 77.3183 49.0886 78.1358C49.6175 78.8907 51.2737 81.7085 49.6627 80.8662C47.4305 79.6984 43.228 79.0216 41.1925 79.0848C39.2499 79.1606 37.321 79.4249 35.4322 79.8739C34.2908 80.1266 30.74 80.5561 30.022 81.4951Z" fill="#FD8927"/>
<path d="M25.1505 65.1749C25.9709 64.4137 27.0669 64.0399 28.1455 63.7481C32.2017 62.6614 36.453 62.4878 40.6023 63.2395C41.5676 63.4156 42.5617 63.6586 43.3395 64.2738C45.358 65.8717 45.532 67.8919 44.001 66.9015C41.7393 65.4381 38.61 64.9664 36.5872 64.6831C34.6545 64.43 32.7044 64.3643 30.7635 64.487C29.5949 64.5515 26.0154 64.3728 25.1505 65.1749Z" fill="#FD8927"/>
<path d="M45.04 71.1009C43.7004 68.3724 42.6657 65.4825 41.5066 62.6732C40.5845 60.4385 39.8365 58.1344 38.9435 55.8876C37.1025 51.2545 34.655 46.8906 32.2187 42.549C27.8871 34.8307 23.556 27.1121 19.2253 19.3935C14.2563 10.5364 7.3755 5.67674 3.28472 -3.09336C18.2855 13.6854 27.9297 32.6738 38.9395 53.0187C50.7708 74.88 59.9545 111.146 66.3975 129.506C67.8655 133.693 64.5091 134.227 63.5103 129.745C62.5494 125.435 54.9723 99.4327 53.7591 95.1692C51.4398 87.0085 48.7802 78.7143 45.04 71.1009Z" fill="#FD8927"/>
<path d="M22.4514 34.4325C16.4316 32.9608 10.1254 33.4878 4.46675 35.9354C10.7788 33.2869 18.232 33.1928 24.4789 36.1725C25.2145 36.5246 25.7147 36.7888 26.2878 36.2642C25.421 35.1724 23.7602 34.7595 22.4514 34.4325Z" fill="#FD8927"/>
<path d="M29.7209 54.6547C24.9875 54.0068 20.1889 54.1728 15.5277 55.1459C21.6129 54.0117 28.0009 55.2407 33.7182 57.7658C35.4198 58.5181 37.424 57.5879 35.6506 56.0791C34.4736 55.0796 31.1734 54.8539 29.7209 54.6547Z" fill="#FD8927"/>
<g clip-path="url(#clip0_113_1286)">
<path d="M113.71 -8.48943C113.269 -8.38982 112.834 -8.27433 112.401 -8.15002C112.208 -8.09459 112.014 -8.04092 111.821 -7.989C111.635 -7.92469 111.449 -7.86214 111.263 -7.80135C110.977 -7.7278 110.701 -7.62955 110.416 -7.56303L110.377 -7.46166C110.163 -7.41528 109.953 -7.36358 109.746 -7.30481C109.302 -7.12971 108.832 -7.00413 108.43 -6.74944C108.361 -6.75386 108.227 -6.76265 108.157 -6.76882L108.112 -6.61308C107.245 -6.36625 106.447 -5.94636 105.629 -5.58647C105.052 -5.31474 104.474 -5.04654 103.914 -4.74649C103.344 -4.47293 102.779 -4.19227 102.237 -3.87616C100.581 -3.01084 98.9742 -2.06758 97.3948 -1.08531C96.9497 -0.817129 96.5374 -0.492307 96.0409 -0.307356C95.3119 -0.371366 94.665 -0.711828 93.981 -0.924552C90.5275 -2.02198 86.9002 -2.57014 83.2747 -2.8267C77.4965 -3.18701 71.5864 -2.90265 66.0365 -1.26456C65.6196 -1.15936 65.249 -1.43648 64.8589 -1.52064C64.6244 -1.62208 64.3995 -1.7392 64.1842 -1.87201C64.1168 -1.87113 63.9839 -1.86936 63.9165 -1.86673L63.8772 -2.01479C63.3487 -2.24305 62.8356 -2.4992 62.3358 -2.77977C62.2665 -2.77716 62.1242 -2.77376 62.055 -2.77115L62.0185 -2.98593C61.9341 -2.97474 61.7673 -2.95409 61.6848 -2.94288L61.6389 -3.1525C61.5583 -3.14478 61.3934 -3.12762 61.3128 -3.11989L61.2606 -3.27691C60.711 -3.46855 60.2096 -3.76846 59.6407 -3.91117L59.6035 -4.0715C59.5379 -4.06709 59.4068 -4.06002 59.3413 -4.05561C58.9977 -4.26036 58.6177 -4.39708 58.2454 -4.54424C57.862 -4.7056 57.4728 -4.86 57.0798 -5.00217C56.5959 -5.207 56.0986 -5.38741 55.5973 -5.55383C54.4967 -5.96699 53.3787 -6.34348 52.2393 -6.65527C51.2625 -6.95088 50.2663 -7.19404 49.2641 -7.40391C48.2138 -7.65657 47.1441 -7.86205 46.0635 -7.95175C45.2264 -8.19458 44.3354 -8.03588 43.4918 -8.21557C42.7473 -8.10237 41.9923 -8.18078 41.2435 -8.16951C38.6077 -8.11449 35.9268 -7.46986 33.7721 -5.9998C31.3328 -4.37011 29.8016 -1.77825 29.1448 0.926964C28.0539 5.34085 28.6467 9.94192 29.6804 14.3169C30.6371 18.0076 31.8355 21.6646 33.4912 25.1361C33.4334 25.6939 33.2579 26.2273 33.0807 26.759C31.7272 31.6419 30.8306 36.6521 30.6446 41.7031C30.6725 43.2861 30.6495 44.8948 31.069 46.4425C31.2273 46.9329 31.3597 47.5371 31.8934 47.7971C32.8486 47.8851 33.0957 46.5955 33.9698 46.5912C34.9978 47.4004 36.4558 48.1324 37.4953 48.933C41.5628 52.1586 46.3622 54.3413 51.2844 56.1816C54.8588 57.4774 57.9562 58.9132 61.6963 59.7017C62.0959 59.7755 62.679 59.9746 62.8762 59.4977L62.9668 59.5814C63.0598 59.6213 63.5164 59.7695 63.1917 59.8443C63.1146 59.8714 62.9585 59.9238 62.8815 59.9509C63.5879 60.1727 64.3156 60.3351 65.0554 60.4326C67.8549 60.738 70.6324 61.2944 73.4597 61.335C75.7068 61.3802 77.9593 61.4449 80.2 61.26C81.7117 61.2956 83.2062 61.0745 84.7086 60.959C89.2691 60.5568 93.7895 59.7923 98.24 58.7862C98.9669 58.5867 99.71 58.4366 100.467 58.378L100.521 58.2628C100.999 58.1478 101.484 58.0435 101.948 57.8775C105.272 57.0182 108.276 55.3805 111.455 54.1294C112.136 53.8538 112.752 53.6596 113.373 53.2707C114.31 52.6929 115.36 52.4974 116.218 51.8078C116.485 51.7147 117.142 51.9657 117.385 51.8231C119.556 50.5184 121.675 49.0742 123.328 47.1971C123.524 46.9204 124.048 46.6251 124.279 47.0304C124.555 47.7718 124.518 48.6197 125.066 49.2627C125.747 48.7991 126.062 48.0374 126.358 47.3299C126.887 45.9176 127.283 44.4508 127.443 42.9599C127.849 37.4023 127.014 31.7178 124.678 26.5739C124.515 26.1836 124.314 25.8051 124.041 25.4713C123.663 24.4686 122.91 23.6455 122.395 22.7095C122.376 22.286 122.833 21.974 122.788 21.5396L122.834 21.505C124.809 16.4405 126.63 11.2722 127.386 5.9036C127.812 2.80015 127.933 -0.430258 126.936 -3.454C126.282 -5.44568 124.898 -7.30642 122.857 -8.22373C120.012 -9.54679 116.687 -9.12491 113.71 -8.48943Z" fill="#44160E"/>
<path d="M98.1296 22.0786C99.9699 21.7497 101.907 22.2019 103.478 23.1306C105.127 24.1974 106.333 25.8748 106.681 27.7343C107.062 29.5538 106.592 31.5114 105.435 33.0103C103.978 34.9498 101.347 36.0465 98.8356 35.7483C95.6934 35.463 92.9714 33.1016 92.3561 30.2076C92.014 28.4712 92.2782 26.5864 93.3196 25.093C94.366 23.5065 96.1699 22.3814 98.1296 22.0786ZM100.592 24.8511C99.7561 24.9209 99.0281 25.635 99.0532 26.4311C99.0079 27.3175 99.6447 28.1356 100.461 28.5293C101.347 28.9133 102.612 28.7647 103.049 27.8483C103.721 26.3957 102.22 24.6809 100.592 24.8511Z" fill="#44160E"/>
<path d="M58.8983 21.8208C60.499 21.6381 62.201 21.8624 63.5865 22.671C65.4727 23.6952 66.837 25.5469 67.1248 27.5794C67.4699 29.5231 66.788 31.5746 65.4174 33.0514C63.4366 35.251 59.8955 35.9827 57.0961 34.8113C54.86 33.9248 53.187 31.918 52.8048 29.6699C52.6059 28.2796 52.7542 26.8166 53.4444 25.5575C54.4476 23.5559 56.5736 22.1311 58.8983 21.8208ZM58.2245 24.6822C57.1548 24.9088 56.3092 25.8796 56.3405 26.9181C56.3064 27.8117 57.1828 28.6259 58.1359 28.5857C59.6788 28.6674 61.1111 27.0509 60.5024 25.6588C60.1821 24.822 59.0963 24.4213 58.2245 24.6822Z" fill="#44160E"/>
<path d="M113.855 -8.14857C116.831 -8.78405 120.157 -9.20593 123.001 -7.88287C125.042 -6.96556 126.427 -5.10482 127.08 -3.11314C128.077 -0.0893997 127.956 3.14101 127.53 6.24446C126.775 11.613 124.953 16.7814 122.978 21.8459L122.933 21.8804C122.759 22.0187 122.579 22.1516 122.398 22.2774C122.271 21.9631 122.135 21.6522 121.951 21.3617C120.356 18.8711 118.547 16.5007 116.519 14.303C118.558 11.3788 119.988 8.05141 120.461 4.57267C120.69 2.63648 120.717 0.622101 120.075 -1.25349C119.898 -1.75115 119.705 -2.29117 119.22 -2.60316C117.4 -3.17858 115.448 -3.22699 113.549 -3.13245C112.196 -2.97629 110.766 -2.66657 109.734 -1.77549C109.282 -1.38094 108.936 -0.723259 109.255 -0.160514C109.886 0.920998 111.065 1.67419 111.491 2.86542C111.69 3.38445 111.142 3.74614 110.735 3.9709C109.497 4.60108 108.279 5.29474 107.284 6.24251C106.137 5.5354 105.058 4.73434 103.888 4.05504C103.175 3.59778 102.4 3.22752 101.714 2.73198C101.067 2.24748 100.275 1.98416 99.6263 1.50315C98.9514 1.01829 98.1523 0.732037 97.4144 0.348224C97.0371 0.148304 96.6055 0.0934643 96.1852 0.0335013C96.6817 -0.151449 97.0939 -0.47627 97.5391 -0.744451C99.1184 -1.72672 100.725 -2.66998 102.382 -3.53531C102.923 -3.85141 103.488 -4.13207 104.059 -4.40563C104.619 -4.70568 105.197 -4.97388 105.773 -5.24561C106.592 -5.6055 107.389 -6.0254 108.257 -6.27223L108.302 -6.42797C108.371 -6.42179 108.506 -6.413 108.575 -6.40858C108.977 -6.66327 109.446 -6.78886 109.89 -6.96396C110.097 -7.02273 110.307 -7.07442 110.521 -7.1208L110.56 -7.22217C110.845 -7.28869 111.122 -7.38694 111.407 -7.46049C111.593 -7.52128 111.779 -7.58383 111.965 -7.64814C112.159 -7.70006 112.352 -7.75373 112.546 -7.80916C112.978 -7.93348 113.413 -8.04896 113.855 -8.14857Z" fill="#F7F4E5"/>
<path d="M33.9171 -5.65882C36.0717 -7.12888 38.7527 -7.7735 41.3885 -7.82853C42.1372 -7.83979 42.8923 -7.76139 43.6367 -7.87459C44.4803 -7.6949 45.3713 -7.8536 46.2085 -7.61077C47.289 -7.52107 48.3587 -7.31559 49.409 -7.06293C50.4113 -6.85306 51.4075 -6.6099 52.3843 -6.31429C53.5237 -6.0025 54.6416 -5.626 55.7423 -5.21284C56.2435 -5.04643 56.7408 -4.86601 57.2247 -4.66118C57.6178 -4.51902 58.0069 -4.36462 58.3903 -4.20326C58.7627 -4.0561 59.1427 -3.91938 59.4862 -3.71463C59.5518 -3.71904 59.6829 -3.72611 59.7484 -3.73052L59.7856 -3.57019C60.3546 -3.42748 60.8559 -3.12756 61.4055 -2.93592L61.4577 -2.77891C61.5383 -2.78664 61.7032 -2.80379 61.7838 -2.81152L61.8297 -2.60189C61.9122 -2.61311 62.079 -2.63375 62.1634 -2.64494L62.1999 -2.43017C62.2692 -2.43277 62.4114 -2.43618 62.4807 -2.43879C62.9805 -2.15822 63.4937 -1.90206 64.0222 -1.67381L64.0614 -1.52575C64.1288 -1.52838 64.2617 -1.53015 64.3291 -1.53102C64.5445 -1.39822 64.7694 -1.2811 65.0038 -1.17966C63.6199 -0.964185 62.3089 -0.470223 61.0149 0.0186904C60.4113 0.237367 59.9176 0.640161 59.3506 0.922553C56.3532 2.29023 53.5331 3.98343 50.8697 5.8596C50.171 6.33349 49.5571 6.91036 48.8162 7.32572C47.7849 6.75539 46.6829 6.30883 45.6574 5.72979C45.3077 5.56361 45.0711 5.19691 45.2257 4.82831C45.7363 3.70556 46.8749 2.94235 47.3409 1.79618C47.6332 1.05876 47.0039 0.383037 46.3397 0.0792359C43.8873 -1.00507 41.0438 -1.09504 38.4401 -0.48805C38.0287 -0.375756 37.5756 -0.21834 37.4502 0.212119C36.7074 1.62516 36.5628 3.2375 36.6397 4.79127C36.7013 8.51414 38.0926 12.1649 40.217 15.2895C39.5329 16.0815 38.8339 16.8627 38.2184 17.7031C36.379 20.11 34.6594 22.659 33.6361 25.4771C31.9804 22.0055 30.782 18.3486 29.8254 14.6579C28.7916 10.2829 28.1988 5.68183 29.2897 1.26795C29.9465 -1.43726 31.4777 -4.02913 33.9171 -5.65882Z" fill="#F7F4E5"/>
<path d="M94.0546 5.72329C96.9137 5.19869 99.9266 5.63691 102.589 6.71519C104.111 7.35344 105.64 8.20081 106.562 9.54785C107.253 10.5107 107.141 11.9706 106.113 12.6914C104.514 13.8596 102.359 13.9455 100.418 13.8393C97.5728 13.5912 94.6772 12.7628 92.46 11.0141C91.4843 10.2091 90.531 8.97583 91.0212 7.7C91.5153 6.55245 92.8331 5.96197 94.0546 5.72329Z" fill="#F7F4E5"/>
<path d="M61.3276 6.23012C63.2141 6.08622 65.2138 6.15284 66.9342 6.97461C67.8623 7.41888 68.6968 8.28876 68.5895 9.33072C68.4717 10.6114 67.3591 11.5348 66.3187 12.2414C63.3887 14.035 59.7417 14.7074 56.2848 14.3002C55.0675 14.077 53.7526 13.7295 52.9264 12.7965C52.19 12.014 52.2735 10.782 52.8906 9.96101C53.6547 8.92063 54.7966 8.18381 55.9886 7.62857C57.6568 6.86176 59.4801 6.40087 61.3276 6.23012Z" fill="#F7F4E5"/>
<path d="M95.7261 15.4567C98.1323 14.6398 100.768 14.8518 103.217 15.3898C106.725 16.1665 109.964 17.7916 112.834 19.8123C115.827 21.9594 118.165 24.9287 119.358 28.2887C120.419 31.1587 120.558 34.2678 120.118 37.2552C119.504 40.9885 117.852 44.5343 115.569 47.6275C112.187 52.2046 107.438 55.8345 102.09 58.2182C101.626 58.3843 101.141 58.4886 100.663 58.6035C100.744 58.3569 101.039 58.2765 101.241 58.1386C103.087 57.0949 104.655 55.6874 106.099 54.1992C108.224 51.9752 110.102 49.5319 111.557 46.8705C113.397 43.5555 114.488 39.8618 114.603 36.1184C114.67 31.9511 113.59 27.6774 111.044 24.2188C108.621 20.8303 104.569 18.4463 100.209 18.1467C97.0503 18.0895 93.8486 19.1981 91.6033 21.2993C89.6888 23.0061 88.4637 25.3789 88.2479 27.8528C87.8258 31.7836 90.2043 35.795 93.9234 37.6196C96.2923 38.7907 98.9191 39.7051 100.751 41.6227C102.554 43.5644 103.519 46.3243 102.785 48.8581C102.119 51.2734 100.293 53.236 98.2299 54.7301C96.4916 55.9931 94.5089 56.9121 92.4848 57.7006C85.1137 60.2107 76.8307 60.1934 69.4367 57.7427C66.3412 56.6008 63.3524 55.0317 61.0714 52.7201C59.2297 50.8779 57.8238 48.4829 57.8014 45.9058C57.7405 43.9904 58.5548 42.1181 59.8373 40.6524C61.2004 39.0297 63.0794 37.8828 64.99 36.9013C66.2145 36.2938 67.3805 35.5696 68.4082 34.6978C70.5602 32.713 71.6788 29.7592 71.2666 26.9433C70.9091 24.3777 69.3476 21.9982 67.1065 20.4968C64.9496 18.9966 62.2303 18.29 59.5619 18.4008C56.2609 18.3733 53.2743 20.0643 50.9232 22.1044C49.8924 23.0693 48.9391 24.1212 48.1381 25.2648C46.9229 27.1687 45.6606 29.0914 45.0632 31.2616C43.6721 35.8788 44.5594 40.8561 46.5687 45.1947C48.213 48.5343 50.393 51.6948 53.2852 54.2077C55.9849 56.5599 59.2088 58.3235 62.5399 59.7636C61.2685 59.8137 60.1416 59.1227 58.9188 58.8906C56.522 58.1285 54.2183 57.1199 52.0063 55.972C49.6548 54.615 47.4582 52.9983 45.5704 51.1064C41.6025 47.4201 39.0286 42.3223 38.9386 37.0516C38.8428 34.0801 39.507 31.0974 40.8207 28.3956C43.1446 23.5798 47.4216 19.6767 52.5131 17.4547C56.0667 15.9169 60.0999 15.0546 63.9918 15.8241C65.8336 16.2364 67.5765 17.0497 69.0345 18.1859C71.6065 20.143 73.2444 22.9732 74.2072 25.9069C75.4671 25.0188 76.9586 24.4534 78.5113 24.2174C80.9485 23.8945 83.5861 24.1293 85.6551 25.4826C87.0977 20.9381 90.7032 16.7205 95.7261 15.4567ZM76.908 29.0303C76.0414 29.3193 74.9908 29.6568 74.6739 30.5625C74.2788 31.4391 74.7697 32.3923 75.4485 33.009C76.479 33.6267 77.4402 34.3981 78.6106 34.7736C78.7256 34.8506 79.0976 35.0312 79.3438 35.0958C79.4509 35.6347 79.5504 36.1788 79.5435 36.7057C79.54 36.9691 79.5389 37.0569 79.3849 37.2376C76.1408 39.2959 71.7001 38.268 69.0236 35.8669C68.7303 35.5416 68.0576 35.7436 68.2217 36.22C68.6291 36.6908 69.1768 37.0265 69.6753 37.4054C70.0714 39.1618 70.826 40.8509 71.8975 42.3422C73.4195 44.4489 75.7435 46.1885 78.4822 46.5687C80.8375 46.9227 83.284 46.1714 85.0845 44.7371C87.2338 43.1054 88.5265 40.7141 89.3352 38.2779C90.0425 37.8533 90.9086 37.6047 91.4466 36.9654C91.6367 36.599 91.1117 36.2461 90.8009 36.5353C89.1057 37.7919 86.8768 38.2211 84.7565 38.2126C83.3558 38.1257 81.0301 37.5156 80.8487 37.0741C80.7575 36.8973 80.8802 35.9591 80.9676 35.1435C81.343 35.0606 81.343 35.0606 81.6481 34.9118C82.5491 34.2789 83.4668 33.6604 84.3402 32.992C84.8751 32.444 85.3799 31.7708 85.3191 30.9866C85.2734 30.1886 84.5531 29.5995 83.8023 29.3367C81.6251 28.5335 79.1559 28.4397 76.908 29.0303Z" fill="#F7F4E5"/>
<path d="M100.587 24.8512C102.216 24.6811 103.717 26.3959 103.045 27.8487C102.608 28.7652 101.342 28.9138 100.457 28.5298C99.64 28.1361 99.0031 27.3179 99.0485 26.4314C99.0233 25.6352 99.7514 24.921 100.587 24.8512Z" fill="#F7F4E5"/>
<path d="M58.2257 24.6822C59.0976 24.4214 60.1836 24.8221 60.5039 25.659C61.1126 27.0512 59.6802 28.6679 58.1371 28.5862C57.1839 28.6264 56.3074 27.8121 56.3416 26.9184C56.3103 25.8798 57.1559 24.9089 58.2257 24.6822Z" fill="#F7F4E5"/>
<path d="M74.3128 43.802C75.871 43.4254 77.5865 43.1932 79.1774 43.4635C80.819 43.5887 82.3645 44.0498 83.8933 44.6337C83.4605 44.8107 83.0442 45.0196 82.637 45.2426C82.3665 45.3233 82.105 45.4235 81.8382 45.5061C80.4103 45.9283 78.8104 45.9126 77.3921 45.4584C77.2039 45.3944 77.0139 45.3322 76.8256 45.2735C75.8982 44.9206 75.1408 44.3064 74.3128 43.802Z" fill="#F6A69B"/>
<path d="M109.732 -1.77562C110.763 -2.6667 112.193 -2.97642 113.547 -3.13258C115.446 -3.22712 117.397 -3.17871 119.218 -2.60329C118.883 -0.218808 118.777 2.20379 118.149 4.54402C117.357 7.2984 116.175 9.94227 114.804 12.4835C113.23 10.8961 111.543 9.40552 109.772 8.01398C108.968 7.39041 108.188 6.73204 107.282 6.24238C108.276 5.29461 109.495 4.60094 110.732 3.97077C111.14 3.74601 111.687 3.38432 111.488 2.86529C111.062 1.67406 109.883 0.920866 109.252 -0.160646C108.934 -0.723391 109.279 -1.38107 109.732 -1.77562Z" fill="#A33C27"/>
<path d="M38.4375 -0.488148C41.0413 -1.09514 43.8848 -1.00517 46.3372 0.0791382C47.0013 0.38294 47.6307 1.05867 47.3384 1.79609C46.8723 2.94225 45.7338 3.70546 45.2232 4.82821C45.0686 5.19681 45.3052 5.56351 45.6549 5.72969C46.6804 6.30873 47.7824 6.75529 48.8136 7.32562C47.825 7.93447 46.9893 8.728 46.1112 9.46476C44.7866 10.5786 43.5395 11.7707 42.3313 12.9932C41.8384 12.0488 41.2287 11.1625 40.7621 10.2061C39.1496 6.86694 38.339 3.17641 38.4375 -0.488148Z" fill="#A33C27"/>
<path d="M36.6358 4.79162C36.5588 3.23769 36.7035 1.62518 37.4464 0.212C37.4516 0.814615 37.4025 1.41652 37.2395 2.00112C36.9897 2.92187 36.9546 3.88583 36.6358 4.79162Z" fill="#A33C27"/>
<path d="M91.6042 21.2995C93.8494 19.1983 97.0511 18.0898 100.209 18.147C104.57 18.4465 108.622 20.8306 111.044 24.219C113.591 27.6776 114.671 31.9513 114.603 36.1187C114.489 39.8621 113.398 43.5558 111.558 46.8708C110.102 49.5322 108.225 51.9754 106.1 54.1994C105.349 54.1053 104.712 54.5519 104.047 54.7908C100.819 56.0237 97.4514 56.9334 94.0314 57.5648C93.5211 57.6617 93.0025 57.6795 92.4856 57.7009C94.5097 56.9124 96.4924 55.9934 98.2308 54.7304C100.294 53.2363 102.12 51.2736 102.786 48.8583C103.519 46.3245 102.554 43.5647 100.751 41.6229C98.92 39.7054 96.2931 38.7909 93.9242 37.6199C90.2051 35.7953 87.8266 31.7838 88.2487 27.853C88.4646 25.3792 89.6897 23.0064 91.6042 21.2995ZM99.2515 20.1298C98.2254 20.1638 97.1942 20.3066 96.2316 20.6453C93.4306 21.5922 91.2363 23.9506 90.6165 26.6826C90.0886 28.8362 90.4942 31.1619 91.6989 33.0589C92.9757 35.1694 95.2672 36.6749 97.7814 37.1874C100.023 37.6296 102.443 37.2415 104.385 36.1041C107.087 34.5798 108.765 31.6122 108.621 28.6576C108.593 26.5143 107.617 24.4288 106.075 22.8628C104.325 21.1326 101.797 20.0929 99.2515 20.1298Z" fill="#A33C27"/>
<path d="M33.6332 25.4769C34.6565 22.6588 36.3761 20.1098 38.2155 17.7029C37.7161 18.6853 37.2742 19.6965 36.9293 20.7371C35.3871 25.3155 34.3049 30.065 34.1257 34.8772C33.99 35.8099 34.002 36.7498 34.1001 37.6856C34.1205 39.2755 34.2737 40.8636 34.5544 42.4324C34.7027 43.4039 35.5134 44.0908 36.0759 44.8658C37.5296 46.7538 39.157 48.5334 41.0764 50.0182C43.0831 51.5516 45.0362 53.1774 47.2999 54.3804C48.2237 54.8668 49.1646 55.3288 50.0864 55.8222C51.5917 56.6323 53.2528 57.1231 54.8562 57.7255C56.1827 58.1873 57.4846 58.8069 58.919 58.8907C60.1418 59.1228 61.2687 59.8138 62.5401 59.7637C62.6599 59.7618 62.8976 59.7596 63.0174 59.7594L63.0182 59.8385C62.8211 60.3154 62.2379 60.1163 61.8384 60.0426C58.0982 59.2541 54.5327 57.9845 50.9583 56.6887C46.5166 54.4756 41.9765 52.3475 37.3554 49.4425C36.316 48.642 35.1399 47.7412 34.1118 46.932C33.2378 46.9364 32.9907 48.226 32.0355 48.1379C31.5018 47.878 31.3693 47.2737 31.2111 46.7834C30.7915 45.2356 30.8145 43.627 30.7866 42.044C30.9726 36.9929 31.8692 31.9828 33.2227 27.0998C33.4 26.5682 33.5754 26.0347 33.6332 25.4769Z" fill="#A33C27"/>
<path d="M50.9235 22.1044C53.2746 20.0643 56.2613 18.3733 59.5622 18.4007C62.2306 18.2899 64.95 18.9965 67.1068 20.4968C69.3479 21.9981 70.9094 24.3776 71.2669 26.9433C71.6791 29.7591 70.5606 32.713 68.4085 34.6977C67.3809 35.5696 66.2148 36.2938 64.9903 36.9013C63.0798 37.8827 61.2007 39.0297 59.8376 40.6524C58.5551 42.1181 57.7408 43.9904 57.8018 45.9058C57.8241 48.4829 59.23 50.8779 61.0718 52.72C63.3528 55.0317 66.3416 56.6008 69.437 57.7427C68.4559 57.779 67.4986 57.568 66.5446 57.3886C62.6158 56.71 58.7512 55.7126 54.9892 54.4513C54.4431 54.2772 53.8669 53.9728 53.2855 54.2076C50.3933 51.6948 48.2133 48.5343 46.569 45.1947C44.5597 40.8561 43.6724 35.8788 45.0636 31.2616C45.6609 29.0913 46.9232 27.1687 48.1384 25.2647C48.9395 24.1212 49.8927 23.0692 50.9235 22.1044ZM58.4923 20.3557C56.1038 20.674 53.8734 21.927 52.47 23.7688C51.1623 25.4414 50.5616 27.5817 50.7947 29.6452C51.0568 31.9251 52.325 34.111 54.2926 35.4893C55.6851 36.4842 57.3798 37.1212 59.1321 37.2197C62.0076 37.4365 64.9741 36.2845 66.7798 34.1652C68.1434 32.6497 68.8826 30.6552 68.845 28.6716C68.8295 26.4265 67.8125 24.2035 66.0735 22.6561C64.1003 20.8508 61.2166 19.9717 58.4923 20.3557Z" fill="#A33C27"/>
<path d="M37.4505 0.211874C37.5759 -0.218585 38.029 -0.376001 38.4403 -0.488295C38.3417 3.17627 39.1524 6.8668 40.7649 10.206C41.2314 11.1624 41.8412 12.0486 42.3341 12.9931C41.5982 13.7335 40.9142 14.5167 40.2173 15.2892C38.0929 12.1646 36.7016 8.5139 36.64 4.79103C36.9588 3.88533 36.9939 2.92146 37.2436 2.00081C37.4066 1.41627 37.4557 0.814428 37.4505 0.211874Z" fill="#772D1B"/>
<path d="M76.3809 30.4702C77.5327 29.5404 79.0239 28.8364 80.5809 28.971C81.6913 29.0558 82.6181 29.7265 83.3929 30.4304C83.6686 30.6659 83.8498 30.9756 83.9991 31.2937C81.2776 31.3458 78.5383 31.7683 75.8265 31.3709C75.917 31.0279 76.0804 30.6963 76.3809 30.4702Z" fill="#735147"/>
<path d="M82.2538 32.912C82.8885 32.4758 83.6917 32.7376 84.3435 32.992C83.47 33.6604 82.5522 34.2791 81.6511 34.912C81.6919 34.2291 81.6466 33.3994 82.2538 32.912Z" fill="#755148"/>
<path d="M75.4526 33.009C75.9842 32.8649 76.5497 32.6967 77.0996 32.8708C77.9786 33.0703 78.9362 33.8382 78.6151 34.7738C77.4446 34.3983 76.4833 33.6269 75.4526 33.009Z" fill="#745147"/>
<path d="M104.049 54.7906C104.714 54.5517 105.351 54.1051 106.102 54.1993C104.658 55.6874 103.09 57.0949 101.244 58.1387C101.042 58.2765 100.747 58.357 100.665 58.6036L100.612 58.7188C99.8547 58.7774 99.1116 58.9275 98.3847 59.127C93.9342 60.1331 89.4139 60.8976 84.8534 61.2998C83.3509 61.4154 81.8564 61.6364 80.3447 61.6008C78.104 61.7857 75.8515 61.7211 73.6045 61.6758C70.7772 61.6352 67.9997 61.0789 65.2001 60.7734C64.4603 60.6759 63.7326 60.5135 63.0262 60.2917C63.1033 60.2646 63.2593 60.2122 63.3364 60.1851C63.6611 60.1104 63.2045 59.9621 63.1115 59.9222L63.0209 59.8385L63.02 59.7594C62.9003 59.7596 62.6626 59.7618 62.5428 59.7637C59.2117 58.3236 55.9877 56.56 53.288 54.2077C53.8694 53.9729 54.4456 54.2773 54.9917 54.4514C58.7537 55.7127 62.6183 56.7101 66.5471 57.3887C67.5011 57.5681 68.4584 57.7791 69.4395 57.7428C76.8335 60.1935 85.1165 60.2107 92.4876 57.7007C93.0044 57.6793 93.5231 57.6616 94.0334 57.5646C97.4534 56.9332 100.821 56.0235 104.049 54.7906Z" fill="#772D1B"/>
<path d="M66.181 -0.923919C71.7308 -2.56201 77.641 -2.84637 83.4192 -2.48606C87.0447 -2.2295 90.672 -1.68134 94.1255 -0.583913C94.8095 -0.371189 95.4564 -0.030727 96.1854 0.0332829C96.6057 0.0932452 97.0373 0.148085 97.4146 0.348005C98.1525 0.731818 98.9517 1.01807 99.6265 1.50293C100.275 1.98394 101.067 2.24726 101.714 2.73176C102.4 3.2273 103.176 3.59756 103.888 4.05482C105.058 4.73412 106.137 5.53518 107.284 6.24229C108.191 6.73195 108.97 7.39032 109.775 8.01389C111.545 9.40543 113.233 10.896 114.806 12.4834C115.377 13.0899 115.953 13.6929 116.519 14.3028C118.547 16.5005 120.356 18.8709 121.951 21.3615C122.135 21.6519 122.271 21.9629 122.398 22.2772C122.579 22.1514 122.759 22.0184 122.933 21.8802C122.978 22.3147 122.521 22.6266 122.539 23.0502C123.055 23.9861 123.808 24.8093 124.186 25.8119C125.305 32.475 124.279 39.4121 121.409 45.5802C120.412 47.5468 119.316 49.4892 117.846 51.1842C117.462 51.6096 117.04 51.4041 116.683 51.8474C115.824 52.537 114.567 52.6907 113.629 53.2686C113.009 53.6574 111.971 54.0863 111.29 54.3619C108.11 55.613 105.416 57.3588 102.093 58.2181C107.441 55.8344 112.19 52.2044 115.572 47.6273C117.854 44.5342 119.506 40.9884 120.121 37.255C120.56 34.2677 120.421 31.1586 119.36 28.2886C118.167 24.9285 115.829 21.9592 112.837 19.8122C109.966 17.7914 106.728 16.1663 103.219 15.3896C100.771 14.8517 98.1349 14.6397 95.7287 15.4565C90.7058 16.7204 87.1003 20.9379 85.6577 25.4825C83.5887 24.1292 80.9511 23.8943 78.5139 24.2172C76.9612 24.4533 75.4697 25.0187 74.2098 25.9068C73.247 22.973 71.6091 20.1429 69.0371 18.1858C67.5791 17.0495 65.8362 16.2363 63.9944 15.8239C60.1025 15.0545 56.0693 15.9167 52.5157 17.4545C47.4242 19.6765 43.1472 23.5796 40.8233 28.3954C39.5096 31.0973 38.8454 34.0799 38.9412 37.0515C39.0312 42.3222 41.6051 47.42 45.573 51.1062C47.4608 52.9981 49.6574 54.6148 52.0089 55.9718C54.2209 57.1197 56.5246 58.1283 58.9214 58.8905C57.487 58.8067 56.1851 58.1871 54.8587 57.7253C53.2552 57.1229 51.5941 56.6321 50.0888 55.822C49.167 55.3286 48.2261 54.8666 47.3024 54.3802C45.0386 53.1772 43.0855 51.5514 41.0788 50.018C39.1594 48.5332 37.532 46.7535 36.0783 44.8656C35.5158 44.0906 34.7051 43.4037 34.5569 42.4321C34.2761 40.8634 34.1229 39.2753 34.1026 37.6854C34.0044 36.7496 33.9924 35.8097 34.1282 34.877C34.3073 30.0648 35.3895 25.3153 36.9318 20.7369C37.2767 19.6963 37.7185 18.6851 38.218 17.7027C38.8335 16.8624 39.5324 16.0811 40.2166 15.2891C40.9135 14.5166 41.5975 13.7334 42.3334 12.993C43.5415 11.7705 44.7886 10.5783 46.1133 9.46451C46.9913 8.72775 47.8271 7.93422 48.8157 7.32537C49.5566 6.91001 50.1706 6.33314 50.8692 5.85926C53.5327 3.98308 56.3527 2.28988 59.3501 0.922209C59.9171 0.639817 60.4109 0.237023 61.0145 0.0183459C62.3085 -0.470567 63.6194 -0.964529 65.0034 -1.18C65.3934 -1.09584 65.7641 -0.818723 66.181 -0.923919ZM94.0597 5.72288C92.8382 5.96156 91.5204 6.55204 91.0262 7.69959C90.536 8.97542 91.4893 10.2087 92.465 11.0137C94.6823 12.7624 97.5779 13.5908 100.423 13.8389C102.364 13.9451 104.519 13.8592 106.118 12.691C107.146 11.9702 107.258 10.5103 106.567 9.54744C105.645 8.2004 104.116 7.35303 102.594 6.71478C99.9317 5.63651 96.9187 5.19828 94.0597 5.72288ZM61.3279 6.22999C59.4804 6.40074 57.6571 6.86164 55.9889 7.62844C54.797 8.18368 53.6551 8.9205 52.891 9.96088C52.2738 10.7819 52.1903 12.0138 52.9268 12.7964C53.753 13.7294 55.0678 14.0768 56.2851 14.3001C59.7421 14.7072 63.3891 14.0349 66.319 12.2412C67.3595 11.5347 68.472 10.6113 68.5899 9.33059C68.6971 8.28863 67.8626 7.41875 66.9346 6.97448C65.2142 6.15271 63.2144 6.08609 61.3279 6.22999Z" fill="#ED5F41"/>
<path d="M99.2558 20.1294C101.801 20.0925 104.329 21.1321 106.079 22.8624C107.621 24.4284 108.597 26.5139 108.625 28.6572C108.77 31.6118 107.091 34.5794 104.389 36.1037C102.447 37.2411 100.028 37.6292 97.7857 37.187C95.2715 36.6745 92.98 35.169 91.7032 33.0585C90.4985 31.1615 90.0929 28.8358 90.6208 26.6822C91.2406 23.9501 93.4349 21.5918 96.2359 20.6449C97.1985 20.3062 98.2297 20.1634 99.2558 20.1294ZM98.1316 22.0784C96.1719 22.3812 94.368 23.5063 93.3217 25.0928C92.2802 26.5862 92.016 28.471 92.3582 30.2075C92.9734 33.1015 95.6954 35.4628 98.8376 35.7481C101.349 36.0463 103.98 34.9496 105.437 33.0102C106.594 31.5112 107.064 29.5536 106.683 27.7341C106.335 25.8747 105.129 24.1972 103.48 23.1305C101.909 22.2017 99.9719 21.7495 98.1316 22.0784Z" fill="#E0A059"/>
<path d="M58.4968 20.3555C61.2212 19.9714 64.1048 20.8506 66.0781 22.6558C67.817 24.2032 68.834 26.4263 68.8495 28.6713C68.8871 30.6549 68.1479 32.6494 66.7843 34.165C64.9786 36.2843 62.0122 37.4363 59.1366 37.2194C57.3843 37.1209 55.6896 36.4839 54.2972 35.489C52.3296 34.1107 51.0613 31.9248 50.7992 29.6449C50.5661 27.5815 51.1669 25.4411 52.4745 23.7685C53.878 21.9267 56.1084 20.6737 58.4968 20.3555ZM58.9006 21.8204C56.5759 22.1307 54.4499 23.5555 53.4467 25.5571C52.7565 26.8162 52.6081 28.2792 52.807 29.6695C53.1893 31.9176 54.8623 33.9244 57.0983 34.8109C59.8977 35.9823 63.4388 35.2506 65.4196 33.051C66.7902 31.5742 67.4721 29.5227 67.1271 27.579C66.8393 25.5465 65.4749 23.6948 63.5888 22.6706C62.2032 21.862 60.5012 21.6377 58.9006 21.8204Z" fill="#E0A059"/>
<path d="M73.9035 43.2062C76.042 42.1118 78.5784 41.9272 80.9697 42.1061C82.4876 42.242 84.0163 42.5483 85.3756 43.2196C85.3862 43.2619 85.4094 43.35 85.4201 43.394C84.9648 43.8606 84.4226 44.2452 83.8917 44.6334C82.3628 44.0495 80.7316 43.7067 79.0901 43.5816C77.3504 43.4489 75.8694 43.4252 74.3111 43.8017C74.162 43.6118 73.8663 43.4744 73.9035 43.2062Z" fill="#EF7767"/>
<path d="M65.9964 -0.867759C70.9803 -2.44828 76.32 -2.75417 81.5469 -2.60309C85.8941 -2.43543 90.264 -1.86173 94.3861 -0.514888C95.02 -0.32917 95.6227 0.0915122 96.3156 -0.082082C97.4541 0.44399 98.6574 0.870792 99.6944 1.57119C100.305 1.95509 100.964 2.26584 101.597 2.61667C103.571 3.68591 105.46 4.88755 107.287 6.16565C109.972 8.06276 112.484 10.1754 114.787 12.4733C115.222 12.9023 115.648 13.3365 116.06 13.7845C115.148 13.6356 114.53 12.9424 113.803 12.4709C103.708 5.37572 91.2683 1.33776 78.6927 0.835645C68.4853 0.427808 57.9826 2.4155 49.2304 7.49127C48.4182 7.918 47.7415 8.57309 46.8323 8.82816C47.4262 8.3529 48.0201 7.87765 48.6122 7.39885C48.6092 7.33909 48.6052 7.21608 48.6023 7.15457C48.6695 7.16774 48.8039 7.19234 48.8711 7.20552C52.2704 4.58193 55.9742 2.29608 59.9501 0.514396C61.5271 -0.28698 63.2512 -0.749176 64.9551 -1.24501C65.2919 -1.0948 65.6383 -0.967305 65.9964 -0.867759Z" fill="#EF8E7B"/>
<path d="M107.24 -5.9954C111.337 -7.71578 115.805 -9.22225 120.366 -8.69698C119.568 -8.7496 118.843 -8.39551 118.124 -8.12564C114.514 -6.70101 111.183 -4.72819 108.031 -2.56333C105.774 -0.966388 103.564 0.708465 101.597 2.6166C100.963 2.26577 100.304 1.95502 99.6938 1.57111C98.6568 0.870721 97.4534 0.443918 96.315 -0.0821535C99.8024 -2.29005 103.413 -4.34526 107.24 -5.9954Z" fill="#C5B4A2"/>
<path d="M39.1429 -7.66604C40.7342 -7.98946 42.3757 -8.00307 43.9955 -7.93265C47.5072 -7.7092 50.9514 -6.90172 54.2665 -5.81313C57.952 -4.56687 61.5385 -3.04613 64.9547 -1.24482C63.2507 -0.74899 61.5266 -0.286794 59.9497 0.514583C58.7376 -0.395375 57.3981 -1.14365 56.0794 -1.90921C54.0391 -3.02676 51.8416 -3.85654 49.6785 -4.74208C46.9291 -5.86717 44.0371 -6.68497 41.0808 -7.16462C40.4236 -7.28214 39.7222 -7.31768 39.1429 -7.66604Z" fill="#C8B7A5"/>
<path d="M108.389 -6.54961C111.22 -7.65433 114.183 -8.48114 117.224 -8.73036C119.746 -8.8911 122.437 -8.6281 124.595 -7.21572C126.481 -6.00394 127.728 -4.00755 128.282 -1.8749C129.25 1.75386 128.794 5.56907 128.06 9.1949C127.074 13.7752 125.445 18.1935 123.599 22.496C123.367 23.0453 123.976 23.47 124.198 23.9203C126.837 28.1717 128.054 33.1668 128.314 38.1171C128.474 40.1719 128.269 42.2333 127.941 44.2623C127.632 45.4615 127.279 46.6616 126.744 47.7836C126.425 48.4012 126.08 49.0798 125.429 49.4136C125.045 49.5734 124.545 49.5393 124.248 49.227C123.824 48.8322 123.67 48.2584 123.451 47.7452C119.819 51.0892 115.299 53.3249 110.691 55.0394C111.127 55.7477 111.31 56.7062 110.807 57.428C110.533 57.9331 110.017 58.2171 109.528 58.4804C109.808 59.0234 110.025 59.6901 109.698 60.2656C109.322 60.8566 108.698 61.3265 107.985 61.4043C107.449 61.5362 106.927 61.2564 106.397 61.2995C105.461 61.964 104.66 62.7933 103.807 63.5557C101.533 65.3994 99.242 67.2185 96.9138 68.9936C95.7478 69.7842 94.5977 70.6009 93.4252 71.3818C93.4311 73.5492 93.4499 75.7185 93.3384 77.8844C92.7956 82.4785 91.9827 87.1708 89.7347 91.2856C89.4083 91.937 88.9202 92.4926 88.6197 93.1573C89.8615 94.0489 91.3579 94.7905 92.0729 96.2082C92.3268 96.7283 91.7601 97.1892 91.9798 97.7138C92.2186 98.518 91.5539 99.2409 90.808 99.4411C90.4505 100.596 89.0165 100.69 88.0707 100.219C87.8236 100.418 87.6067 100.678 87.3004 100.789C86.6401 100.922 85.9748 100.697 85.3733 100.444C83.0994 99.3255 81.271 97.428 80.0478 95.2414C79.6492 94.5611 79.4604 93.7898 79.1094 93.0908C77.7475 91.1607 76.872 88.9366 76.2447 86.6787C76.174 86.4759 76.1304 86.1975 75.8617 86.1794C75.3368 86.053 74.7998 85.9863 74.2678 85.9114C73.6337 88.0221 72.7932 90.0961 71.5029 91.9025C70.778 92.7377 70.6962 93.8865 70.2027 94.8442C69.0522 97.066 67.3322 99.08 65.0739 100.249C64.2993 100.652 63.2286 100.877 62.5964 100.116C62.0198 100.209 61.4572 100.597 60.8505 100.373C60.3229 100.33 60.0616 99.8729 59.773 99.5058C59.372 99.2631 58.8604 99.1159 58.6414 98.664C58.3347 98.1836 58.6913 97.5972 58.4402 97.1029C58.2611 96.7145 58.3079 96.2516 58.5408 95.8962C59.2874 94.6494 60.6234 93.9499 61.642 92.9684C61.1843 92.6894 60.6527 92.5872 60.1512 92.4191C54.631 90.5007 49.5481 87.4269 45.1762 83.5872C41.5126 80.4221 38.334 76.6997 35.7862 72.5997C32.7168 67.6319 30.5259 62.0443 30.0401 56.2092C29.8491 53.122 30.0796 49.9611 31.1141 47.024C31.3478 46.4748 30.803 46.0089 30.7039 45.4892C30.0333 42.9287 30.2526 40.2506 30.453 37.6449C30.8996 33.6665 31.6978 29.7265 32.8257 25.8814C32.9557 25.4099 33.2427 24.9049 33.0226 24.4159C30.7612 19.1099 28.9011 13.533 28.5384 7.74804C28.2848 3.84439 28.8092 -0.34299 31.1988 -3.5805C32.2464 -4.90402 33.5396 -6.06766 34.9966 -6.92229C35.935 -7.25561 36.8057 -7.77716 37.8021 -7.93529L37.6323 -7.91652C37.8632 -8.24458 38.3441 -8.11876 38.6908 -8.2095C43.9643 -9.2289 49.387 -8.20817 54.4389 -6.62541C58.3869 -5.38821 62.1809 -3.71859 65.8732 -1.87588C66.1063 -1.75331 66.3591 -1.63371 66.632 -1.68504C67.4453 -1.8052 68.2264 -2.07598 69.0352 -2.22365C73.0558 -3.04306 77.1789 -3.22803 81.2738 -3.12266C86.3472 -2.93664 91.4514 -2.23017 96.2389 -0.50391C100.162 -2.74098 104.122 -4.99374 108.389 -6.54961ZM114.114 -7.33214C107.901 -5.9229 102.202 -2.92904 96.7761 0.297732C96.5072 0.421794 96.1924 0.55979 95.9042 0.410658C94.169 -0.269412 92.3611 -0.751784 90.5373 -1.13746C85.299 -2.18162 79.912 -2.44443 74.588 -2.05233C71.9364 -1.83192 69.2842 -1.44839 66.7282 -0.698609C66.0566 -0.566906 65.4988 -1.04419 64.9268 -1.30364C59.9307 -3.78524 54.7051 -5.91777 49.2136 -7.03792C46.5425 -7.57522 43.7978 -7.847 41.0758 -7.61135C40.6758 -7.55846 40.2554 -7.57043 39.8863 -7.39115C37.7452 -7.19635 35.6508 -6.34199 33.9435 -5.04651C31.3521 -3.0859 29.9869 0.0842865 29.5986 3.22529C28.9675 8.21718 30.0606 13.2414 31.5828 17.9837C32.3148 20.214 33.1302 22.4243 34.1571 24.539C34.1336 24.7163 34.1051 24.8936 34.0719 25.0708C33.0895 28.0151 32.4123 31.0538 31.8784 34.1057C31.408 37.034 31.0806 40.003 31.2373 42.9719C31.3346 44.002 31.4232 45.0771 31.9245 46.0059C32.0627 46.2822 32.3708 46.5269 32.6998 46.4263C33.2697 46.2189 33.6027 45.6855 34.0735 45.3396C34.4646 45.096 34.7604 45.5327 35.0084 45.7669C36.6296 47.3095 38.426 48.6687 40.309 49.8837C40.9623 50.2863 41.6329 50.7328 42.4277 50.782C42.7733 50.7768 42.711 51.183 42.7471 51.4079C42.5475 51.5943 42.3318 51.8822 42.0187 51.7634C40.9941 51.4641 40.089 50.8773 39.1883 50.326C37.7321 49.2491 36.215 48.2214 34.9774 46.8889C34.8007 46.6848 34.5695 46.5396 34.3299 46.4186C33.7136 46.9273 32.9326 47.6874 32.0711 47.2595C31.9865 47.2406 31.8175 47.2044 31.733 47.1872C31.5632 47.5758 31.4601 47.9863 31.3504 48.3951L31.2489 48.4244C31.2193 49.3155 30.9863 50.1798 30.846 51.0565C30.6964 51.7765 30.7275 52.5166 30.6755 53.2475L30.6215 53.2629C30.5134 55.7923 30.883 58.3069 31.3852 60.7796C31.7374 61.6435 31.9325 62.5553 32.2453 63.4331C32.6728 64.8971 33.2787 66.3021 33.8715 67.7069C34.703 69.5605 35.723 71.3278 36.8155 73.0412C37.4136 73.7968 37.9409 74.6031 38.5094 75.3809C38.8547 75.8974 39.302 76.3458 39.5979 76.8972C40.9023 78.4874 42.294 80.0044 43.7451 81.464C45.1186 82.5108 46.3197 83.7669 47.6981 84.8121C48.049 85.0218 48.375 85.2716 48.6316 85.5915C50.0801 86.6328 51.5718 87.6101 53.1018 88.5297C53.9318 88.8749 54.7049 89.3405 55.5131 89.7339C56.6314 90.3477 57.8437 90.7576 59.0022 91.2864C59.7012 91.6783 60.5206 91.8458 61.2782 92.1206C61.2404 91.5209 61.0523 90.9467 60.9377 90.3622C60.7292 89.3565 60.6187 88.3359 60.4608 87.3245C60.1709 84.9482 60.1779 82.5516 60.1342 80.1656C59.8182 80.0177 59.5092 79.8441 59.2696 79.589C58.7583 79.0558 58.1915 78.5251 57.9679 77.8002L57.9117 77.856C57.3971 77.074 56.9482 76.2525 56.5502 75.4075C55.8977 74.073 55.4321 72.6602 55.0106 71.2415C54.9503 70.7433 54.8148 70.2602 54.6924 69.7757C54.3756 68.3294 54.1325 66.8532 54.0965 65.3718C54.0673 64.6172 54.0462 63.8627 54.0431 63.1084L53.9507 63.0684C53.9416 62.7647 54.1094 62.4003 53.8731 62.1468C53.4766 61.6781 52.9281 61.3657 52.5119 60.9145C51.8143 60.1608 50.9763 59.5539 50.2721 58.8082C49.6521 58.9809 48.9918 59.1112 48.3708 58.864C47.4584 58.7099 46.8766 57.8286 46.8114 56.9604C46.9089 56.6048 47.039 56.2593 47.2193 55.9354C46.1647 55.5598 45.4787 54.417 45.7392 53.3206C45.9463 52.6951 46.4903 52.2322 47.164 52.191C47.1419 52.1374 47.1009 52.0319 47.0804 51.9783C46.7766 51.527 46.8392 50.9803 46.9306 50.4776C47.2176 49.4704 48.4408 48.7952 49.4241 49.2667C49.2995 48.8226 49.4762 48.4001 49.7545 48.0582L49.7131 47.9849C50.2287 47.6978 50.8537 47.5202 51.4225 47.778C52.4078 48.2157 53.1107 49.0599 53.93 49.7263C54.1129 49.0795 54.7146 48.3138 55.4769 48.608C56.722 49.125 56.7704 50.6535 57.2388 51.7288C57.4317 52.0543 57.6756 52.3514 57.9873 52.5735C59.6861 53.7877 61.5263 54.7954 63.437 55.6409C65.172 56.3355 66.8583 57.1441 68.5949 57.8371C69.3297 58.1181 70.0983 58.3026 70.8363 58.5755C73.4308 59.3654 76.1336 59.7222 78.8299 59.9513C82.6455 60.0983 86.4994 59.8112 90.2115 58.8957C92.209 58.2242 94.1483 57.3872 96.0541 56.4916C96.2505 56.4264 96.3766 56.2617 96.5057 56.1099C97.1961 55.9187 97.7916 55.5018 98.3915 55.1269C98.7699 54.8605 99.1902 54.6286 99.4851 54.2659C99.9812 53.355 100.098 52.2713 100.717 51.4218C101.034 50.9899 101.621 50.7392 102.145 50.935C102.628 51.1287 102.799 51.651 103.022 52.0706C103.877 51.376 104.65 50.4946 105.725 50.1373C106.277 49.9313 106.848 50.1681 107.262 50.537C107.494 50.8856 107.638 51.2864 107.519 51.708C108.272 51.4449 109.147 51.6922 109.648 52.3092C110.028 52.9021 110.209 53.6474 109.926 54.3188C112.104 53.5624 114.274 52.701 116.261 51.54C116.5 51.4672 116.734 51.375 116.953 51.247C118.95 50.1281 120.906 48.8892 122.565 47.3072C122.928 46.9809 123.194 46.5177 123.665 46.33C123.864 46.3246 124.132 46.3313 124.178 46.579C124.344 47.119 124.348 47.7053 124.606 48.2207C124.687 48.3864 124.849 48.7342 125.088 48.5403C125.514 48.2487 125.736 47.7493 125.976 47.3116C126.619 45.9262 127.025 44.4344 127.266 42.9324C127.795 37.4126 126.994 31.7172 124.659 26.6557C124.515 26.3357 124.338 26.0297 124.128 25.7492C123.742 24.8025 123.097 23.9947 122.547 23.1412C122.384 22.9242 122.526 22.6645 122.573 22.4357L122.558 22.4145C123.89 19.596 124.957 16.6561 125.91 13.6921C126.992 10.1354 127.845 6.46428 127.894 2.73418C127.891 0.0887088 127.478 -2.7301 125.798 -4.87914C124.479 -6.57446 122.387 -7.49824 120.279 -7.74874C118.218 -7.98087 116.131 -7.77567 114.114 -7.33214ZM49.8645 48.872C50.0533 49.2669 50.3464 49.6632 50.1985 50.1232C49.6693 50.2083 49.3212 49.653 48.7974 49.6962C47.7101 49.5818 47.0185 50.9827 47.5876 51.8364C47.7324 52.2291 48.4089 52.3478 48.1579 52.85C47.6118 52.851 46.9084 52.5446 46.5087 53.0626C45.7835 54.0464 46.7567 55.532 47.9464 55.4281C48.0038 55.5242 48.117 55.7162 48.1728 55.8122C47.8801 56.1346 47.4523 56.4359 47.4607 56.9173C47.3862 57.7496 48.2422 58.3536 49.0093 58.3976C49.518 58.5124 49.9721 58.071 50.4474 58.1225C51.3793 58.6531 52.0145 59.5675 52.8767 60.1941C53.6502 61.1184 54.6849 61.7731 55.5675 62.5857C56.5596 63.4983 57.6477 64.3007 58.6779 65.1702C59.6207 65.9901 60.618 66.7558 61.6703 67.4333C62.3269 64.5979 63.1251 61.7756 64.3547 59.1252C64.5645 58.6645 64.8132 58.2188 64.9678 57.7363C65.021 57.6578 65.1257 57.5042 65.1773 57.4257C65.2403 57.3442 65.3663 57.1795 65.4293 57.0979C63.727 56.2762 61.9393 55.6212 60.3089 54.6518C59.1636 53.9844 57.9789 53.3357 57.0377 52.3915C56.3802 51.5721 56.3524 50.459 55.8507 49.5625C55.7059 49.2893 55.4225 49.1499 55.1601 49.0189C54.8112 49.15 54.5971 49.4476 54.4542 49.7752C54.4208 50.0832 54.4952 50.748 53.9886 50.6041C53.0323 49.8179 52.2555 48.7677 51.0934 48.2566C50.5816 48.0125 50.0724 48.4289 49.8645 48.872ZM105.568 50.7925C104.826 51.2108 104.201 51.7985 103.575 52.3701C103.282 52.6215 103.017 53.0218 102.572 52.9368C102.47 52.6351 102.443 52.3198 102.426 52.0046C102.309 51.693 102.028 51.3001 101.642 51.3887C101.121 51.5789 100.931 52.153 100.734 52.6171C100.392 53.4525 100.221 54.4516 99.425 55.0015C97.0248 56.8031 94.2189 57.9631 91.4353 59.0474C91.36 59.0739 91.2077 59.1268 91.1324 59.1517C91.077 59.1461 90.9663 59.135 90.911 59.1294C90.9458 59.3382 90.9837 59.5503 91.0593 59.7515C92.3312 62.9498 93.0118 66.3616 93.2685 69.784C93.3343 69.9916 93.2445 70.3748 93.519 70.4495C94.427 70.0705 95.1469 69.3678 95.9624 68.8342C97.0326 68.1441 97.9714 67.281 98.9983 66.5322C100.008 65.8203 100.906 64.9696 101.891 64.2251C102.512 63.7051 103.227 63.2752 103.734 62.6342C104.655 61.9906 105.363 61.0776 106.346 60.5123C106.759 60.7132 107.188 60.9352 107.666 60.8963C108.494 60.9152 109.433 60.2266 109.274 59.3314C109.299 58.7874 108.463 58.5488 108.762 57.9874C109.028 57.9457 109.299 57.9121 109.562 57.8348C110.476 57.5141 110.976 56.1026 110.159 55.4362C109.684 55.0246 109.013 55.6279 108.584 55.162C108.781 54.7867 109.233 54.6149 109.38 54.205C109.797 53.3771 109.225 52.2052 108.253 52.1601C107.691 52.0203 107.269 52.7044 106.748 52.5555C106.413 51.9955 107.362 51.5008 106.893 50.9859C106.616 50.5398 105.977 50.5427 105.568 50.7925ZM66.0747 57.3551C64.8731 59.3662 64.0504 61.5729 63.3594 63.8007C62.2032 67.6874 61.484 71.6979 61.1393 75.7342C60.9334 77.642 60.8706 79.5664 60.8634 81.4865C60.8818 84.8089 61.1134 88.1502 61.8794 91.3936C62.1252 92.4111 62.4944 93.4737 63.3395 94.1615C64.3427 95.0969 65.8785 95.3221 67.1513 94.8478C67.9853 94.5196 68.8062 94.0668 69.4067 93.3948C69.6072 93.2747 69.8093 93.1514 69.968 92.9806C71.3255 91.5142 72.2877 89.7341 73.042 87.9029C73.2569 87.1773 73.6768 86.4738 73.6348 85.6996C72.0301 85.3895 70.5578 84.6693 69.0966 83.9767C68.7525 83.6136 67.7987 83.3847 68.2146 82.7441C68.7551 82.9192 69.1555 83.3395 69.6492 83.6011C72.2671 85.0922 75.3121 85.7039 78.3054 85.7803C80.826 85.7406 83.5768 85.4198 85.5311 83.6834C85.8086 83.532 85.9323 83.792 85.9652 84.0153C85.0957 84.9406 83.894 85.4659 82.685 85.8021C82.0938 85.8929 81.5117 86.0322 80.9235 86.1327C79.5206 86.3388 78.102 86.2556 76.6922 86.2372C77.2659 88.4831 78.1024 90.6986 79.4252 92.6249C79.9024 93.2724 80.3959 93.9281 81.0497 94.4147C81.3791 94.65 81.6862 94.9754 82.1127 95.0181C82.7187 95.4169 83.5114 95.5048 84.2295 95.4367C85.2824 95.3229 86.1868 94.7146 86.9811 94.0613L87.0051 93.9727C88.9521 92.1733 90.0201 89.6597 90.8884 87.2146C92.7059 81.6133 93.1836 75.6374 92.6996 69.7911C92.3675 66.2757 91.7309 62.7385 90.2934 59.4879C84.8833 60.7316 79.2035 60.9172 73.7419 59.8766C71.0816 59.3846 68.5685 58.3617 66.0747 57.3551ZM54.7419 62.8931C54.5865 65.3007 54.9167 67.713 55.427 70.0648C56.0771 72.8221 57.0601 75.5499 58.715 77.8827C59.1428 78.4455 59.5091 79.1076 60.1764 79.428C60.3078 78.6093 60.2307 77.7733 60.3425 76.9528C60.5196 74.0189 60.9506 71.103 61.5149 68.2195C60.6733 67.514 59.7255 66.946 58.8905 66.2357C57.949 65.4401 57.0058 64.6476 56.0361 63.8872C55.5986 63.5649 55.2759 63.0664 54.7419 62.8931ZM84.2226 95.9664C82.8017 96.1755 81.5139 95.4383 80.4275 94.623C80.4169 95.0621 80.663 95.4336 80.9211 95.7697L80.9901 95.7253C81.8081 96.9942 82.8446 98.1238 84.0701 99.0152C84.9601 99.6373 85.9719 100.293 87.0951 100.284C87.8507 100.218 87.1137 99.1116 87.7751 99.0234C88.0291 99.2867 88.1524 99.7066 88.5522 99.7959C89.0602 99.9689 89.7487 100.046 90.1312 99.5872C90.3979 99.0109 89.8261 98.6126 89.4936 98.2416C89.3449 98.0216 89.6222 97.7539 89.8504 97.8797C90.2505 98.0755 90.4848 98.4791 90.7361 98.828C91.1868 98.7693 91.5966 98.3435 91.4838 97.8736C91.4403 97.3353 90.7299 97.1887 90.622 96.7157C90.8365 96.2711 91.2676 96.7031 91.583 96.7719C91.554 96.4953 91.5138 96.2041 91.3095 95.9963C90.4655 94.9726 89.3193 94.255 88.1837 93.5909C87.0711 94.6584 85.867 95.8636 84.2226 95.9664ZM61.7504 93.5286L61.8174 93.6361C60.9604 94.2321 60.1158 94.867 59.4177 95.646C59.1493 95.9833 58.8005 96.3518 58.884 96.8196C59.1997 96.7349 59.7159 96.2814 59.8538 96.8226C59.5816 97.1938 59.1008 97.4426 59.0405 97.9377C58.9627 98.4034 59.3945 98.787 59.8202 98.8911C60.058 98.5292 60.2528 98.0973 60.6485 97.878C60.8604 97.7499 61.0457 97.9203 61.1443 98.1025C60.8085 98.4809 60.2422 98.9014 60.4596 99.4792C60.7881 100.034 61.5981 99.9222 62.1 99.68C62.4799 99.5477 62.6043 99.1407 62.8071 98.8382C63.4886 98.9521 62.8583 99.9032 63.4547 100.042C64.0335 100.162 64.5817 99.8724 65.0805 99.6222C67.0623 98.529 68.5154 96.7279 69.6343 94.8109C69.8832 94.4718 70.0108 94.0681 70.0927 93.6638C68.9077 94.5285 67.6733 95.5653 66.1194 95.5966C64.8529 95.7237 63.5571 95.219 62.6922 94.3C62.3976 94.02 62.1695 93.6342 61.7504 93.5286Z" fill="#EF5A3C"/>
<path d="M51.4657 49.6165C52.508 49.1989 53.6297 50.6818 53.156 51.627C52.788 52.2149 51.9282 51.8952 51.587 51.4352C51.1316 50.9818 50.8244 50.041 51.4657 49.6165Z" fill="#43160F"/>
<path d="M54.8755 50.2038C55.133 50.0828 55.451 49.9529 55.6942 50.1822C56.2031 50.6524 56.1053 51.399 55.9751 52.0062C55.7147 52.0997 55.4043 52.3928 55.1352 52.16C54.5263 51.7223 54.5921 50.8106 54.8755 50.2038Z" fill="#43160F"/>
<path d="M49.1584 50.7005C50.1313 50.4726 51.2402 51.4417 50.9712 52.438C50.8127 52.8429 50.2819 53.0411 49.8778 52.9018C49.182 52.7505 48.6178 52.1406 48.5586 51.434C48.6102 51.1052 48.8198 50.7881 49.1584 50.7005Z" fill="#43160F"/>
<path d="M104.554 52.0679C104.922 51.8596 105.509 51.8576 105.72 52.2851C106.025 53.1533 105.339 54.1069 104.494 54.3381C104.103 54.4267 103.728 54.1569 103.62 53.792C103.527 53.0963 103.95 52.4024 104.554 52.0679Z" fill="#43160F"/>
<path d="M101.166 52.5291C101.356 52.2974 101.678 52.3614 101.918 52.4711C102.366 53.0197 102.317 53.8622 101.856 54.3827C101.665 54.5951 101.355 54.5022 101.106 54.5086C100.653 53.9422 100.676 53.0622 101.166 52.5291Z" fill="#43160F"/>
<path d="M106.83 53.2574C107.231 53.0721 107.714 53.0881 108.078 53.3513C108.919 54.4494 107.052 55.9981 106.061 55.1275C105.487 54.4739 106.149 53.5247 106.83 53.2574Z" fill="#43160F"/>
<path d="M52.8861 52.7117C53.9769 52.3254 55.2772 53.1129 55.3632 54.2673C55.5813 55.6576 54.396 57.1636 52.9347 57.0895C51.9269 57.1151 51.1047 56.1626 51.1076 55.2C51.068 54.1108 51.8305 53.0306 52.8861 52.7117Z" fill="#43160F"/>
<path d="M47.8344 53.2981C48.4559 53.1415 49.2398 53.2874 49.5628 53.8909C49.7711 54.2926 49.4357 54.7566 49.0475 54.892C48.4588 55.0345 47.7432 54.9056 47.3767 54.3872C47.154 53.9627 47.3632 53.4292 47.8344 53.2981Z" fill="#43160F"/>
<path d="M102.568 55.1203C104.095 54.5072 105.743 56.0067 105.674 57.5321C105.708 58.5518 104.831 59.5449 103.769 59.4955C102.208 59.4847 101.029 57.749 101.498 56.2983C101.681 55.7903 102.058 55.3317 102.568 55.1203Z" fill="#43160F"/>
<path d="M108.062 55.7914C108.652 55.5811 109.587 55.8793 109.559 56.609C109.306 57.5231 107.859 57.7464 107.299 57.009C106.93 56.4598 107.544 55.9058 108.062 55.7914Z" fill="#43160F"/>
<path d="M48.9353 55.701C49.7008 55.2572 50.935 55.8645 50.7645 56.812C50.6459 57.9007 48.9692 58.0903 48.4776 57.1648C48.1208 56.6546 48.4054 55.9557 48.9353 55.701Z" fill="#43160F"/>
<path d="M106.779 58.1019C107.314 57.9554 107.951 58.0865 108.253 58.5848C108.753 59.2503 108.104 60.2239 107.325 60.2379C106.673 60.3424 105.936 59.8255 105.973 59.1396C105.932 58.6545 106.342 58.2415 106.779 58.1019Z" fill="#43160F"/>
<path d="M54.4548 49.7752C54.5977 49.4476 54.8118 49.15 55.1607 49.0189C55.4231 49.1499 55.7065 49.2893 55.8513 49.5625C56.353 50.459 56.3808 51.5721 57.0383 52.3915C57.9795 53.3357 59.1642 53.9843 60.3095 54.6518C61.9399 55.6212 63.7276 56.2761 65.43 57.0979C65.3669 57.1794 65.2409 57.3441 65.1779 57.4257C64.3216 57.2142 63.4238 57.1927 62.5882 56.8975C60.6941 56.2767 58.7899 55.4281 57.4123 53.9533C56.8462 53.3709 56.4299 52.671 55.9725 52.0061C56.1027 51.3989 56.2005 50.6524 55.6916 50.1822C55.4484 49.9529 55.1305 50.0828 54.873 50.2038C54.756 50.1796 54.6405 50.1555 54.5267 50.133C54.5083 50.044 54.4732 49.8642 54.4548 49.7752Z" fill="#E09E80"/>
<path d="M101.642 51.3886C102.028 51.3 102.309 51.6929 102.426 52.0045C102.404 52.2142 102.38 52.4238 102.353 52.6334C102.207 52.5782 102.061 52.5246 101.916 52.471C101.676 52.3613 101.354 52.2973 101.164 52.529C100.674 53.062 100.652 53.9419 101.104 54.5083C100.791 54.874 100.459 55.2266 100.083 55.5317C98.046 57.2331 95.5502 58.3681 92.9434 58.8943C92.4511 59.0251 91.9448 59.0976 91.4353 59.0474C94.2189 57.963 97.0247 56.8031 99.4249 55.0015C100.221 54.4515 100.392 53.4524 100.734 52.6171C100.931 52.1529 101.121 51.5788 101.642 51.3886Z" fill="#E09E80"/>
<path d="M31.7271 47.1873C31.8116 47.2046 31.9807 47.2407 32.0652 47.2596C31.8468 47.6314 31.7676 48.2038 31.3445 48.3953C31.4541 47.9865 31.5573 47.576 31.7271 47.1873Z" fill="#A23C27"/>
<path d="M30.6161 53.263L30.6701 53.2476C30.801 53.2089 30.9302 53.1719 31.0611 53.1348C30.9878 53.5053 31.0367 53.8805 31.1575 54.2358C31.7151 56.0872 32.3609 57.9171 33.1805 59.6719C33.2539 59.6696 33.399 59.665 33.4723 59.6644C32.8398 60.0517 32.2424 60.4944 31.661 60.9535C31.5899 60.9105 31.4493 60.8215 31.3798 60.7786C30.8776 58.3062 30.508 55.792 30.6161 53.263Z" fill="#A23C27"/>
<path d="M60.5018 60.4284C62.148 59.8169 63.5204 58.7011 64.9626 57.7364C64.808 58.2189 64.5593 58.6646 64.3495 59.1254C63.1199 61.7757 62.3217 64.598 61.6651 67.4335C60.6128 66.7559 59.6155 65.9902 58.6727 65.1704C57.6425 64.3009 56.5544 63.4985 55.5623 62.5859C54.6797 61.7733 53.645 61.1185 52.8715 60.1943C55.2797 61.1351 58.0559 61.3653 60.5018 60.4284Z" fill="#A23C27"/>
<path d="M90.9043 59.1294C90.9596 59.135 91.0703 59.1461 91.1257 59.1517C91.4862 59.5069 91.8185 59.8924 92.2269 60.1965C93.7431 61.2985 95.2542 62.5344 97.1229 62.982C99.2927 63.5871 101.618 63.3608 103.727 62.6342C103.22 63.2752 102.506 63.7051 101.884 64.2251C100.9 64.9696 100.002 65.8203 98.9916 66.5322C97.9647 67.281 97.0259 68.144 95.9557 68.8342C95.1402 69.3678 94.4203 70.0705 93.5123 70.4495C93.2378 70.3748 93.3276 69.9916 93.2618 69.784C93.0051 66.3616 92.3245 62.9498 91.0526 59.7515C90.977 59.5503 90.9391 59.3382 90.9043 59.1294Z" fill="#A23C27"/>
<path d="M66.9987 68.8372C69.4287 66.8793 72.3312 65.3071 75.5003 65.0354C78.5035 64.7356 81.5659 65.509 84.1474 67.0351C86.682 68.5348 88.7832 70.6409 90.6446 72.8892C90.8624 73.186 91.1997 73.444 91.2631 73.8243C91.3494 77.1944 91.093 80.5843 90.305 83.8702C89.697 86.3575 88.8454 88.7754 87.9825 91.185C87.6606 92.1159 87.2397 93.0148 87.0022 93.9726L86.9782 94.0611C86.184 94.7145 85.2795 95.3228 84.2266 95.4366C83.5085 95.5047 82.7158 95.4168 82.1098 95.018C81.7657 93.9153 81.2702 92.7879 81.4405 91.6096C81.6879 89.6473 81.952 87.6546 82.6821 85.802C83.8911 85.4658 85.0928 84.9405 85.9624 84.0152C85.9294 83.7919 85.8057 83.5319 85.5282 83.6833C83.5739 85.4197 80.8231 85.7405 78.3025 85.7801C75.3092 85.7038 73.3122 85.4827 69.6463 83.601C69.1526 83.3394 68.7522 82.9191 68.2117 82.744C67.7958 83.3846 68.7497 83.6135 69.0937 83.9765C69.9223 85.4248 70.3866 87.0637 70.523 88.7193C70.601 90.3579 69.9079 91.8735 69.4038 93.3947C68.8033 94.0667 67.9824 94.5195 67.1484 94.8477C65.8756 95.322 64.3398 95.0968 63.3366 94.1614C62.4915 93.4736 62.1224 92.4109 61.8765 91.3935C61.1105 88.1501 60.8789 84.8088 60.8605 81.4864C60.8677 79.5662 60.9305 77.6419 61.1364 75.734C62.7106 73.1545 64.6024 70.7212 66.9987 68.8372Z" fill="#A23C27"/>
<path d="M33.8657 67.7063C34.624 66.9298 35.4884 66.2581 36.4167 65.6921C36.6482 66.4315 37.1569 67.0324 37.5673 67.6805C38.2484 68.6842 38.8785 69.7323 39.683 70.6472C38.6823 71.3946 37.7923 72.2727 36.8093 73.0398C35.717 71.3267 34.6971 69.5597 33.8657 67.7063Z" fill="#A23C27"/>
<path d="M39.5907 76.8966C40.4612 75.8907 41.5007 75.0388 42.5063 74.1703C43.5371 75.6 44.8232 76.8264 46.0518 78.0891C45.1823 79.1483 44.5115 80.3393 43.7373 81.4627C42.2864 80.0033 40.8949 78.4865 39.5907 76.8966Z" fill="#A23C27"/>
<path d="M48.6254 85.5919C49.0146 84.2499 49.8223 83.0733 50.534 81.8825C50.8522 82.2372 51.2265 82.5361 51.6207 82.8061C52.4364 83.3805 53.2236 84.0176 54.1509 84.4109C53.6817 85.7551 53.5586 87.1894 53.096 88.5304C51.5659 87.6107 50.074 86.6333 48.6254 85.5919Z" fill="#A23C27"/>
<path d="M58.7434 86.7691C59.3063 86.9767 59.8777 87.1635 60.4559 87.3246C60.6139 88.3361 60.7244 89.3568 60.9329 90.3625C61.0475 90.9471 61.2356 91.5214 61.2734 92.1211C60.5157 91.8463 59.6963 91.6789 58.9972 91.2869C58.5828 89.8197 58.5851 88.2724 58.7434 86.7691Z" fill="#A23C27"/>
<path d="M32.0667 47.2594C33.1112 47.546 33.7092 46.9273 34.3255 46.4186C34.5651 46.5396 34.7963 46.6848 34.973 46.8889C36.2106 48.2214 37.7277 49.2491 39.1839 50.326C40.0846 50.8773 40.9897 51.4641 42.0143 51.7634C42.3274 51.8822 42.5431 51.5943 42.7427 51.4079C43.0376 51.9189 43.6976 52.0568 44.1844 52.3458C39.8268 51.6427 35.2684 51.704 31.0621 53.1347C30.9313 53.1718 30.802 53.2088 30.6711 53.2475C30.7231 52.5166 30.692 51.7765 30.8416 51.0565C30.9819 50.1798 31.014 49.4517 31.2445 48.4244L31.6653 47.1208C31.7674 47.1544 31.7696 47.1637 32.0667 47.2594Z" fill="#5A281C"/>
<path d="M40.8997 57.1641C42.8527 56.8973 44.84 56.7457 46.8079 56.9605C46.8732 57.8286 47.4549 58.71 48.3674 58.8641C48.9884 59.1112 49.6487 58.981 50.2687 58.8083C50.9729 59.5539 51.8109 60.1609 52.5084 60.9146C52.9247 61.3658 53.4732 61.6782 53.8697 62.1469C54.106 62.4003 53.9382 62.7648 53.9472 63.0685C52.2395 62.2806 50.3198 62.1198 48.4596 62.1487C44.2266 62.2611 40.0356 63.5176 36.4194 65.6925C35.491 66.2585 34.6264 66.9303 33.8681 67.7069C33.2752 66.3021 32.6693 64.8972 32.2419 63.4332C31.929 62.5554 31.734 61.6435 31.3818 60.7797C31.4513 60.8226 31.592 60.9117 31.6631 60.9546C32.2446 60.4955 32.8421 60.0527 33.4747 59.6653C35.7384 58.3287 38.3075 57.5694 40.8997 57.1641Z" fill="#5A281C"/>
<path d="M47.4588 66.3381C49.557 65.5661 51.8439 64.9452 54.091 65.372C54.127 66.8535 54.3701 68.3296 54.6869 69.776C53.9976 69.5117 53.3985 68.9596 52.6171 69.0027C51.0786 68.9857 49.62 69.5884 48.268 70.2587C46.1842 71.307 44.3028 72.6987 42.5084 74.1707C41.5027 75.0393 40.463 75.8914 39.5924 76.8974C39.2964 76.346 38.8492 75.8977 38.5039 75.3812C37.9354 74.6033 37.4081 73.797 36.81 73.0414C37.7932 72.2742 38.6832 71.396 39.6841 70.6484C42.0676 68.8805 44.6724 67.3852 47.4588 66.3381Z" fill="#5A281C"/>
<path d="M46.0578 78.0898C48.4595 75.1819 51.469 72.6615 55.0084 71.2415C55.43 72.6602 55.8955 74.073 56.548 75.4075C55.5878 75.9149 54.8116 76.68 54.0487 77.4339C52.7236 78.7893 51.5919 80.3152 50.538 81.8825C49.8263 83.0732 49.0187 84.2496 48.6295 85.5915C48.3729 85.2716 48.0469 85.0218 47.6959 84.8121C46.3176 83.7668 45.1164 82.5108 43.743 81.464C44.5173 80.3404 45.1882 79.1492 46.0578 78.0898Z" fill="#5A281C"/>
<path d="M57.9073 77.856L57.9634 77.8002C58.187 78.5251 58.7538 79.0558 59.2652 79.589C59.5047 79.8441 59.8138 80.0177 60.1297 80.1656C59.772 80.2206 59.4527 80.4506 59.433 80.8331C59.1562 82.8047 58.8988 84.783 58.744 86.7691C58.5857 88.2722 58.5834 89.8194 58.9977 91.2864C57.8392 90.7577 56.6269 90.3477 55.5086 89.7339C54.7004 89.3405 53.9273 88.8749 53.0973 88.5297C53.5599 87.1889 53.683 85.7547 54.1521 84.4107C54.732 82.5787 55.4212 80.737 56.5616 79.1659C56.9125 78.636 57.4566 78.291 57.9073 77.856Z" fill="#5A281C"/>
<path d="M69.0918 83.9766C70.553 84.6692 72.0252 85.3894 73.63 85.6995C73.672 86.4737 73.252 87.1772 73.0371 87.9028C72.2829 89.734 71.3207 91.5141 69.9632 92.9805C69.8045 93.1512 69.6024 93.2746 69.4019 93.3947C69.906 91.8735 70.599 90.358 70.5211 88.7193C70.3847 87.0637 69.9204 85.4248 69.0918 83.9766Z" fill="#5A281C"/>
<path d="M80.9212 86.1326C81.5092 86.0322 82.0912 85.8929 82.6824 85.8021C81.9524 87.6544 81.6884 89.6468 81.441 91.6088C81.2707 92.787 81.7661 93.9141 82.1102 95.0167C81.6837 94.974 81.3767 94.6486 81.0473 94.4134C80.3936 93.9268 79.9002 93.2712 79.4231 92.6239C78.1005 90.6978 77.2641 88.4827 76.6905 86.237C78.1001 86.2555 79.5185 86.3387 80.9212 86.1326Z" fill="#5A281C"/>
<path d="M49.8585 48.872C50.0664 48.429 50.5755 48.0125 51.0874 48.2567C52.2495 48.7677 53.0262 49.818 53.9825 50.6041C54.4892 50.748 54.4148 50.0833 54.4482 49.7752C54.4666 49.8643 54.5017 50.044 54.5201 50.1331C54.6339 50.1556 54.7493 50.1797 54.8664 50.2039C54.5829 50.8106 54.5172 51.7223 55.126 52.1599C55.3951 52.3927 55.7054 52.0996 55.9658 52.0061C56.4233 52.6711 56.8396 53.371 57.4057 53.9534C58.7833 55.4282 60.6875 56.2768 62.5816 56.8976C63.4172 57.1928 64.315 57.2143 65.1713 57.4258C65.1197 57.5042 65.015 57.6579 64.9618 57.7363C63.5196 58.701 62.1472 59.8168 60.501 60.4283C58.0551 61.3652 55.2789 61.135 52.8707 60.1942C52.0084 59.5675 51.3733 58.6532 50.4414 58.1225C49.9661 58.0711 49.512 58.5125 49.0033 58.3976C48.2362 58.3536 47.3802 57.7497 47.4547 56.9173C47.4463 56.4359 47.8741 56.1347 48.1668 55.8123C48.111 55.7163 47.9978 55.5242 47.9404 55.4282C46.7507 55.5321 45.7775 54.0464 46.5027 53.0627C46.9023 52.5446 47.6058 52.851 48.1518 52.8501C48.4029 52.3479 47.7264 52.2292 47.5816 51.8365C47.0125 50.9827 47.704 49.5819 48.7914 49.6962C49.3152 49.653 49.6633 50.2083 50.1925 50.1232C50.3404 49.6633 50.0473 49.267 49.8585 48.872ZM51.4592 49.6165C50.8179 50.041 51.125 50.9817 51.5804 51.4351C51.9216 51.895 52.7813 52.2147 53.1492 51.6268C53.6229 50.6818 52.5013 49.199 51.4592 49.6165ZM49.1515 50.7007C48.8129 50.7883 48.6034 51.1053 48.5518 51.4341C48.611 52.1407 49.1752 52.7505 49.8708 52.9017C50.2749 53.0411 50.8056 52.8429 50.9641 52.438C51.2331 51.4418 50.1244 50.4728 49.1515 50.7007ZM52.8791 52.7118C51.8235 53.0307 51.0612 54.1108 51.1007 55.1999C51.0979 56.1624 51.92 57.1148 52.9277 57.0892C54.3888 57.1633 55.574 55.6574 55.3559 54.2673C55.27 53.113 53.9698 52.3256 52.8791 52.7118ZM47.8297 53.2981C47.3586 53.4292 47.1495 53.9626 47.3721 54.3871C47.7386 54.9055 48.4541 55.0344 49.0428 54.8919C49.4309 54.7565 49.7662 54.2925 49.5579 53.8909C49.235 53.2874 48.4512 53.1415 47.8297 53.2981ZM48.9327 55.7012C48.4029 55.9559 48.1183 56.6547 48.4751 57.1649C48.9666 58.0903 50.6431 57.9007 50.7617 56.8121C50.9323 55.8647 49.6981 55.2574 48.9327 55.7012Z" fill="#ED583A"/>
<path d="M105.563 50.7928C105.972 50.543 106.611 50.5401 106.887 50.9862C107.356 51.5011 106.408 51.9958 106.743 52.5557C107.264 52.7047 107.685 52.0206 108.247 52.1604C109.22 52.2055 109.791 53.3774 109.375 54.2053C109.227 54.6152 108.775 54.7869 108.578 55.1622C109.007 55.6282 109.678 55.0249 110.154 55.4365C110.97 56.1029 110.471 57.5143 109.557 57.8351C109.293 57.9123 109.022 57.9459 108.756 57.9877C108.457 58.549 109.293 58.7877 109.268 59.3316C109.428 60.2268 108.488 60.9154 107.66 60.8965C107.182 60.9355 106.753 60.7134 106.34 60.5126C105.358 61.0779 104.65 61.9908 103.729 62.6344C101.62 63.361 99.2938 63.5873 97.124 62.9823C95.2554 62.5347 93.7442 61.2987 92.2281 60.1968C91.8197 59.8926 91.4873 59.5071 91.1268 59.1519C91.2021 59.1271 91.3544 59.0742 91.4298 59.0477C91.9393 59.098 92.4456 59.0255 92.9379 58.8947C95.5447 58.3684 98.0405 57.2335 100.077 55.5321C100.453 55.2269 100.785 54.8744 101.098 54.5086C101.348 54.5022 101.658 54.5951 101.848 54.3828C102.31 53.8623 102.358 53.0199 101.911 52.4714C102.055 52.525 102.201 52.5786 102.347 52.6338C102.374 52.4242 102.398 52.2145 102.42 52.0049C102.438 52.32 102.464 52.6353 102.566 52.937C103.012 53.022 103.276 52.6217 103.57 52.3704C104.195 51.7988 104.82 51.2111 105.563 50.7928ZM104.548 52.0683C103.944 52.4028 103.521 53.0965 103.615 53.7922C103.722 54.157 104.097 54.4268 104.488 54.3383C105.333 54.1071 106.019 53.1535 105.714 52.2855C105.503 51.8579 104.916 51.8599 104.548 52.0683ZM106.828 53.2578C106.146 53.525 105.485 54.4741 106.058 55.1276C107.05 55.9982 108.917 54.4496 108.075 53.3517C107.712 53.0885 107.228 53.0725 106.828 53.2578ZM102.561 55.1205C102.051 55.3319 101.673 55.7904 101.49 56.2984C101.022 57.749 102.2 59.4845 103.762 59.4952C104.824 59.5447 105.701 58.5516 105.667 57.5321C105.736 56.0068 104.088 54.5074 102.561 55.1205ZM108.056 55.7917C107.538 55.9061 106.924 56.4601 107.294 57.0092C107.853 57.7465 109.3 57.5232 109.553 56.6092C109.581 55.8796 108.646 55.5814 108.056 55.7917ZM106.771 58.1022C106.334 58.2418 105.924 58.6547 105.965 59.1398C105.928 59.8257 106.665 60.3424 107.317 60.2379C108.096 60.2239 108.744 59.2505 108.245 58.585C107.943 58.0868 107.306 57.9557 106.771 58.1022Z" fill="#ED583A"/>
<path d="M31.0618 53.135C35.2681 51.7043 39.8265 51.6429 44.1841 52.3461C44.7001 52.6468 45.4749 52.7296 45.7345 53.3209C45.474 54.4173 46.1599 55.5601 47.2145 55.9357C47.0342 56.2595 46.9042 56.6051 46.8066 56.9607C44.8387 56.7459 42.8514 56.8975 40.8984 57.1643C38.3062 57.5696 35.7371 58.3289 33.4734 59.6655C33.4 59.6662 33.2549 59.6707 33.1815 59.673C32.3618 57.918 31.7159 56.0878 31.1582 54.2361C31.0374 53.8808 30.9885 53.5055 31.0618 53.135Z" fill="#ED583A"/>
<path d="M66.0711 57.3554C68.5649 58.3619 71.078 59.3849 73.7383 59.8768C79.1999 60.9174 84.8797 60.7319 90.2898 59.4882C91.7272 62.7387 92.3639 66.2759 92.6959 69.7914C93.18 75.6377 92.7023 81.6135 90.8848 87.2149C90.0165 89.66 88.9485 92.1735 87.0014 93.973C87.239 93.0151 87.6599 92.1162 87.9818 91.1854C88.8447 88.7757 89.6963 86.3579 90.3043 83.8706C91.0923 80.5846 91.3486 77.1948 91.2624 73.8247C91.1989 73.4443 90.8617 73.1864 90.6439 72.8896C88.7825 70.6413 86.6813 68.5351 84.1467 67.0355C81.5652 65.5093 78.5027 64.7359 75.4996 65.0357C72.3305 65.3075 69.428 66.8797 66.998 68.8375C64.6016 70.7215 62.7099 73.1548 61.1357 75.7344C61.4804 71.6981 62.1996 67.6877 63.3557 63.8009C64.0467 61.5731 64.8695 59.3665 66.0711 57.3554Z" fill="#ED583A"/>
<path d="M36.4162 65.6927C40.0324 63.5179 44.2234 62.2614 48.4564 62.1489C50.3166 62.12 52.2363 62.2808 53.944 63.0688L54.0364 63.1087C54.0396 63.863 54.0607 64.6175 54.0899 65.3721C51.8428 64.9453 49.5559 65.5662 47.4577 66.3382C44.6713 67.3853 42.0664 68.8806 39.683 70.6485C38.8783 69.7336 38.2482 68.6852 37.567 67.6814C37.1566 67.0332 36.6477 66.4322 36.4162 65.6927Z" fill="#ED583A"/>
<path d="M48.2702 70.2589C49.6221 69.5887 51.0807 68.986 52.6193 69.0029C53.4006 68.9599 53.9997 69.512 54.689 69.7762C54.8115 70.2607 54.9469 70.7438 55.0072 71.242C51.4678 72.6621 48.4583 75.1824 46.0566 78.0903C44.8279 76.8274 43.5415 75.6009 42.5106 74.171C44.3049 72.699 46.1863 71.3072 48.2702 70.2589Z" fill="#ED583A"/>
<path d="M54.0483 77.4338C54.8112 76.68 55.5872 75.9151 56.5473 75.4077C56.9453 76.2526 57.3941 77.074 57.9086 77.8558C57.458 78.2908 56.914 78.6357 56.5632 79.1656C55.4229 80.7363 54.7338 82.5779 54.1541 84.4095C53.227 84.0163 52.44 83.3794 51.6245 82.8052C51.2304 82.5352 50.8562 82.2364 50.5381 81.8818C51.592 80.3147 52.7235 78.789 54.0483 77.4338Z" fill="#ED583A"/>
<path d="M59.4318 80.8333C59.4515 80.4508 59.7707 80.2209 60.1283 80.1658C60.172 82.5515 60.165 84.9477 60.4549 87.3237C59.8769 87.1627 59.3056 86.9759 58.7428 86.7683C58.8976 84.7825 59.155 82.8046 59.4318 80.8333Z" fill="#ED583A"/>
</g>
<path d="M68.0291 98.3071C68.2411 94.1023 66.5407 89.9761 64.2501 86.416C64.1602 86.2487 64.0297 86.1071 63.871 86.0046C63.6338 85.8795 63.3478 85.9416 63.0946 86.02C60.4914 86.8234 58.3782 89.0307 57.6708 91.6867C58.6203 88.3876 60.5835 85.4915 63.2783 83.4145C61.6855 77.846 59.2845 72.5378 56.1544 67.6646C52.7022 68.6316 49.6106 70.5857 47.2479 73.2941C47.647 69.7298 50.8669 67.3222 53.8127 65.352C51.7287 63.2547 50.0771 60.7655 48.1131 58.5527C42.0003 51.6654 32.7633 47.7257 23.6942 48.1341C26.2824 51.1554 28.5808 53.4226 31.424 56.7739L35.9375 62.3101L40.0745 68.2719L48.6331 81.476C50.8378 84.7316 53.2702 89.1414 55.1998 93.0525C58.0863 98.9029 60.9212 106.753 61.218 108.507C66.0735 109.242 67.8396 102.168 68.0291 98.3071Z" fill="#FBB861"/>
<path d="M41.6986 58.1269C43.5497 59.1073 45.3481 60.1882 47.0857 61.3647C44.3593 64.299 43.6314 69.7543 44.1532 73.7845C42.4096 71.4998 40.4828 68.689 40.1545 67.5138C39.9728 66.8625 41.3359 57.9342 41.6986 58.1269Z" fill="#EF5A3C"/>
<path d="M61.3519 106.963L56.1722 96.2359C56.1722 96.2359 56.2124 95.1739 58.5371 92.6747C60.8618 90.1754 62.5703 88.4191 62.5703 88.4191C62.5703 88.4191 61.8208 91.9439 63.0929 93.5477C64.3649 95.1516 66.5803 97.7911 66.5264 98.7711C66.2382 103.909 61.3519 106.963 61.3519 106.963Z" fill="white"/>
<path d="M23.753 48.4254C34.5697 58.7447 43.2775 71.1884 50.5122 84.3138C53.853 90.3751 56.8994 96.6018 59.7629 102.904C60.5373 104.614 61.2987 106.329 62.0519 108.048C61.7151 108.266 61.3816 108.483 61.059 108.7C56.8219 111.553 50.7632 111.355 46.6209 108.23L51.2967 104.038C49.0516 104.852 47.028 106.18 45.3819 107.918C42.5711 105.991 40.1921 103.485 38.4041 100.566C41.4126 97.5775 45.2042 95.5176 49.344 94.6231C44.5436 94.3299 39.7889 95.5336 35.7228 98.0715C32.2944 92.8237 29.603 87.1258 27.7269 81.1437C31.0103 77.7008 36.0271 76.0357 40.7473 76.8239C35.9763 75.1737 30.5237 75.7796 26.2884 78.4293C24.722 73.6061 23.7665 68.6087 23.4453 63.5577L31.328 62.676C28.6411 62.2446 25.9212 62.091 23.2106 62.2176C24.2044 57.7004 24.3881 53.0293 23.753 48.4254Z" fill="#FBB861"/>
<path d="M59.4105 103.512C59.4955 103.7 59.5802 103.887 59.6648 104.073C57.8538 102.761 55.4982 102.42 53.3034 102.682C51.0876 102.947 48.9886 103.769 46.9168 104.583C47.496 102.741 48.6118 101.124 50.1192 99.9435C48.038 99.8611 45.9797 100.34 44.1552 101.33C45.5116 98.5709 48.8275 97.5621 51.7958 96.8216C50.0313 94.6304 47.3009 93.3851 44.5462 93.0027C41.7915 92.6202 38.9978 93.0254 36.3091 93.6693C34.4178 91.3199 32.7058 88.8294 31.1881 86.2198C35.2943 83.391 40.998 83.0895 45.4567 85.4643C45.9216 84.8895 45.1884 84.0948 44.5292 83.7428C41.0854 81.914 37.2027 81.1315 33.3547 81.4909C34.0596 80.8558 34.5849 80.0425 34.8782 79.1324C37.9574 78.6485 41.1173 78.9534 44.0699 80.0194C42.9158 77.1492 40.6786 75.0404 37.9328 73.6527C35.1549 72.2615 31.9836 71.9368 29.0139 72.7397C28.6695 70.5118 28.0194 68.3395 27.0825 66.286C30.1067 64.9902 33.4898 64.778 36.6769 65.6843C34.8311 63.2737 32.3258 61.4629 29.479 60.4817C29.16 60.372 28.8149 60.2585 28.6129 59.9837C28.4786 59.7997 28.4258 59.5705 28.3824 59.3463C27.9159 57.1047 27.4496 54.8627 26.9834 52.6203C36.1606 62.1818 43.7375 73.2815 50.1548 84.9219C53.5021 90.9865 56.5454 97.2084 59.4105 103.512Z" fill="#EF5A3C"/>
<path d="M55.779 80.2977C56.1945 79.6229 56.702 78.9262 57.4619 78.7055C57.8228 79.0857 57.4559 79.6877 57.102 80.0638C55.5887 81.6768 54.4254 83.3761 53.5291 85.3965C53.6937 83.6701 54.8913 81.7405 55.779 80.2977Z" fill="#FD8927"/>
<path d="M39.6807 57.5969C39.7478 57.1348 39.9018 56.5899 40.3471 56.465C40.3843 56.4517 40.424 56.4465 40.4635 56.4499C40.503 56.4533 40.5415 56.4652 40.5763 56.4847C40.6857 56.5596 40.6828 56.7197 40.6645 56.8504C40.3568 59.2496 40.037 61.647 39.7422 64.0476C39.3632 61.9115 39.3424 59.7307 39.6807 57.5969Z" fill="#FAB661"/>
<path d="M41.3197 91.4697C41.8129 90.935 42.5043 90.6374 43.1886 90.3939C45.7624 89.485 48.5087 89.158 51.2355 89.4358C51.87 89.5012 52.5265 89.6086 53.0616 89.968C54.4503 90.9016 54.6649 92.2021 53.6228 91.6375C52.0833 90.8033 50.0315 90.6555 48.7064 90.5739C47.4412 90.5074 46.1741 90.5633 44.9224 90.7407C44.1684 90.8414 41.8397 90.9063 41.3197 91.4697Z" fill="#FD8927"/>
<path d="M54.5078 94.3068C53.502 92.6062 52.6856 90.7856 51.7927 89.0235C51.0824 87.6218 50.4814 86.1664 49.7893 84.7554C48.3625 81.8459 46.5562 79.1414 44.7583 76.4507C41.5618 71.6674 38.3656 66.884 35.1697 62.1004C31.5026 56.6113 26.7983 53.8092 23.7048 48.3321C34.2727 58.4487 41.4806 70.2675 49.642 82.8964C58.4122 96.4667 66.1935 119.506 71.2953 131.079C72.4579 133.718 70.3097 134.233 69.4363 131.379C68.5961 128.634 62.3738 112.166 61.3725 109.464C59.4577 104.293 57.3157 99.0519 54.5078 94.3068Z" fill="#FD8927"/>
<path d="M38.0197 71.6849C34.0443 71.0349 29.9842 71.6945 26.4406 73.5662C30.3974 71.5314 35.2227 71.0943 39.4213 72.7102C39.9159 72.9012 40.2533 73.0472 40.5982 72.6783C39.9814 72.0145 38.8843 71.8307 38.0197 71.6849Z" fill="#FD8927"/>
<path d="M43.7524 84.4214C40.6522 84.2403 37.5509 84.59 34.5793 85.4558C38.4656 84.4137 42.6673 84.8879 46.4998 86.2358C47.6405 86.6375 48.8924 85.9335 47.667 85.0453C46.8538 84.4569 44.7037 84.4771 43.7524 84.4214Z" fill="#FD8927"/>
<path d="M88.3776 105.533L88.3775 105.533C87.9084 102.836 88.6544 99.9961 89.8412 97.4444L89.8453 97.4357L89.8487 97.4267C89.8775 97.3498 89.9236 97.2816 89.9822 97.2276C90.0347 97.1946 90.1257 97.1877 90.2921 97.2153L90.2923 97.2153C91.8406 97.4706 93.229 98.5278 93.9365 99.9706C93.9896 100.085 94.0408 100.2 94.0901 100.317L94.5526 100.127C94.5022 100.001 94.4472 99.8768 94.3878 99.7554C93.4885 97.8249 92.06 96.2168 90.2732 95.1299C90.847 91.4323 91.9306 87.827 93.4906 84.4258C95.6939 84.7647 97.7487 85.7382 99.4222 87.2389L100.016 87.7715L99.8324 86.9951C99.5405 85.7625 98.7895 84.8135 97.8625 84.048C97.0163 83.3492 96.0116 82.7937 95.0508 82.3086C95.5776 81.575 96.0436 80.8024 96.4965 80.0309C96.5805 79.8878 96.664 79.7448 96.7473 79.6021C97.1646 78.8875 97.5778 78.1798 98.0301 77.4982C101.299 72.5723 106.681 69.1956 112.341 68.4808C111.768 69.3604 111.211 70.1686 110.643 70.9935C110.604 71.0509 110.564 71.1083 110.524 71.1659C109.821 72.187 109.099 73.2416 108.309 74.4897L108.309 74.4897L108.306 74.4937L105.826 78.5854L105.821 78.5935L105.817 78.6019L103.617 82.9406L103.616 82.9406L103.613 82.9475L99.1326 92.4981C97.9598 94.8757 96.7363 98.0367 95.8006 100.815C95.0988 102.898 94.4475 105.31 93.9654 107.35C93.5271 109.205 93.2229 110.775 93.1539 111.508C92.5153 111.661 91.95 111.557 91.4453 111.28C90.89 110.975 90.3977 110.454 89.974 109.808C89.1256 108.514 88.5933 106.783 88.3776 105.533Z" fill="#FBB861" stroke="#EF5A3C" stroke-width="0.5"/>
<path d="M101.956 76.4767C100.833 77.2995 99.7532 78.1839 98.7204 79.1261C100.732 80.8171 101.651 84.366 101.641 87.0867C102.587 85.4092 103.609 83.3659 103.727 82.5561C103.792 82.1074 102.176 76.3151 101.956 76.4767Z" fill="#EF5A3C"/>
<path d="M112.823 68.3726C106.638 76.2236 101.998 85.2863 98.3699 94.6635C96.6947 98.9938 95.2243 103.406 93.879 107.852C93.5156 109.058 93.1611 110.266 92.8122 111.476C93.0489 111.589 93.2832 111.702 93.5107 111.816C96.497 113.312 100.417 112.615 102.853 110.157L99.4726 107.813C100.998 108.144 102.421 108.835 103.633 109.834C105.302 108.295 106.643 106.411 107.566 104.309C105.367 102.608 102.735 101.596 99.9717 101.389C103.067 100.747 106.255 101.102 109.104 102.405C110.903 98.6055 112.186 94.5767 112.916 90.4355C110.501 88.4593 107.105 87.8235 104.102 88.7865C107.068 87.2472 110.66 87.1401 113.628 88.5016C114.252 85.1577 114.464 81.7553 114.26 78.3766L109.066 78.5276C110.777 77.9908 112.531 77.6352 114.303 77.4662C113.288 74.564 112.787 71.4843 112.823 68.3726Z" fill="#FBB861"/>
<path d="M94.1551 108.221C94.1152 108.354 94.0755 108.485 94.0358 108.617C95.1053 107.578 96.6079 107.132 98.0554 107.101C99.5167 107.07 100.948 107.419 102.361 107.766C101.834 106.598 100.976 105.63 99.9005 104.988C101.246 104.739 102.623 104.864 103.889 105.351C102.782 103.648 100.545 103.289 98.5559 103.075C99.5232 101.457 101.196 100.377 102.954 99.8664C104.713 99.3558 106.561 99.3637 108.361 99.5397C109.398 97.8056 110.306 95.9947 111.079 94.1229C108.18 92.6306 104.449 92.9629 101.746 94.9535C101.397 94.6158 101.809 94.0205 102.208 93.7256C104.296 92.1917 106.755 91.3106 109.285 91.1898C108.775 90.8345 108.367 90.3444 108.102 89.7684C106.062 89.7348 104.034 90.2319 102.202 91.2142C102.717 89.2035 103.999 87.5966 105.669 86.4204C107.361 85.2388 109.395 84.7276 111.39 84.9828C111.432 83.4736 111.676 81.9727 112.117 80.5238C110.046 79.9469 107.831 80.1219 105.834 81.0202C106.836 79.2497 108.316 77.8154 110.086 76.8992C110.284 76.7967 110.499 76.6893 110.608 76.4883C110.68 76.3537 110.695 76.1968 110.705 76.0441C110.825 74.5144 110.945 72.9845 111.064 71.4543C105.883 78.6499 101.867 86.7159 98.6493 95.0323C96.9701 99.3654 95.5014 103.774 94.1551 108.221Z" fill="#EF5A3C"/>
<path d="M94.6212 92.4943C94.2961 92.0857 93.9093 91.6711 93.3976 91.5957C93.1941 91.8814 93.4817 92.2463 93.7424 92.4626C94.8576 93.3908 95.7524 94.4089 96.5 95.6648C96.2518 94.5356 95.3159 93.368 94.6212 92.4943Z" fill="#FD8927"/>
<path d="M103.223 75.9374C103.142 75.6374 102.997 75.2904 102.698 75.2492C102.672 75.2438 102.646 75.2441 102.621 75.2501C102.595 75.256 102.571 75.2674 102.55 75.2836C102.485 75.3435 102.5 75.4494 102.523 75.5343C102.919 77.0963 103.323 78.6559 103.71 80.22C103.782 78.7684 103.617 77.3205 103.223 75.9374Z" fill="#FAB661"/>
<path d="M96.5891 101.663C97.1036 100.442 97.4852 99.1586 97.9213 97.907C98.2682 96.9114 98.5398 95.8904 98.8741 94.8903C99.5633 92.8282 100.516 90.8665 101.464 88.9149C103.15 85.4453 104.836 81.9756 106.521 78.5059C108.455 74.5245 111.283 72.2278 112.845 68.3078C106.806 76.0012 103.088 84.5096 98.8179 93.6441C94.2287 103.459 91.0562 119.46 88.6874 127.609C88.1478 129.467 89.5857 129.609 89.9199 127.635C90.2414 125.737 92.9381 114.238 93.3678 112.353C94.1892 108.746 95.1525 105.071 96.5891 101.663Z" fill="#FD8927"/>
<path d="M105.452 85.1247C107.982 84.3228 110.674 84.3813 113.13 85.2916C110.392 84.3117 107.221 84.4722 104.625 85.9353C104.32 86.1081 104.112 86.2364 103.858 86.024C104.205 85.5263 104.902 85.3021 105.452 85.1247Z" fill="#FD8927"/>
<path d="M102.771 94.1045C104.771 93.6951 106.815 93.6376 108.816 93.9343C106.206 93.6061 103.514 94.3125 101.134 95.5638C100.426 95.9366 99.5551 95.5867 100.279 94.8834C100.759 94.4174 102.158 94.2302 102.771 94.1045Z" fill="#FD8927"/>
<defs>
<clipPath id="clip0_113_1286">
<rect width="107.967" height="122.859" fill="white" transform="translate(26.6328 -16.1074) rotate(0.75111)"/>
</clipPath>
</defs>
</svg>
