<svg width="25" height="25" viewBox="0 0 25 25" fill="none" xmlns="http://www.w3.org/2000/svg">
<path d="M22.4231 14.6646C22.2483 14.4521 22.0241 14.2858 21.7702 14.1803C21.5162 14.0748 21.2403 14.0333 20.9666 14.0596C19.3917 14.152 17.8707 14.6668 16.5629 15.5501C15.255 16.4335 14.2086 17.6528 13.5332 19.0803V13.981C14.7123 13.7799 15.7824 13.1679 16.5545 12.2532C17.3266 11.3385 17.7509 10.18 17.7524 8.98231C17.7524 6.62238 16.1128 4.62915 14.5086 2.99079C14.4158 2.89565 14.3154 2.80832 14.2082 2.7297C13.2392 4.66291 12.7199 6.79074 12.6893 8.95358C12.6931 9.06455 12.675 9.17516 12.6361 9.27912C12.5971 9.38308 12.5381 9.47834 12.4624 9.55947C12.3867 9.64059 12.2958 9.706 12.1949 9.75195C12.094 9.7979 11.985 9.82349 11.8742 9.82726C11.7633 9.83103 11.6529 9.81291 11.549 9.77394C11.4452 9.73496 11.3501 9.67589 11.2691 9.60009C11.188 9.5243 11.1227 9.43327 11.0768 9.3322C11.0309 9.23113 11.0054 9.122 11.0016 9.01104C11.0106 6.66968 11.5428 4.36002 12.5594 2.25146C11.9241 2.27671 11.3217 2.54034 10.8717 2.98995C9.26582 4.62915 7.62623 6.62238 7.62623 8.98231C7.62776 10.18 8.05206 11.3385 8.82413 12.2532C9.59621 13.1679 10.6664 13.7799 11.8455 13.981V19.0811C11.1702 17.6534 10.1238 16.4339 8.81598 15.5504C7.50812 14.6669 5.98698 14.152 4.41202 14.0596C4.13835 14.0335 3.86247 14.075 3.60854 14.1805C3.35461 14.286 3.1304 14.4522 2.95554 14.6646C2.7818 14.8711 2.66084 15.1169 2.60306 15.3807C2.54529 15.6444 2.55244 15.9183 2.62391 16.1787C4.34451 22.3789 12.3442 22.5015 12.6842 22.5015H12.6944C13.0319 22.5015 21.035 22.3789 22.7556 16.1787C22.8266 15.9182 22.8335 15.6444 22.7756 15.3806C22.7177 15.1169 22.5967 14.8712 22.4231 14.6646Z" fill="#BB93F5"/>
</svg>
