<svg width="25" height="25" viewBox="0 0 25 25" fill="none" xmlns="http://www.w3.org/2000/svg">
<g clip-path="url(#clip0_138_12492)">
<path d="M11.4655 5.08252C9.47356 5.08252 7.60157 5.87451 6.23359 7.1585C5.83759 5.95851 4.7216 5.08252 3.38962 5.08252C1.73363 5.08252 0.389648 6.42651 0.389648 8.08249C0.389648 9.73847 1.73363 11.0825 3.38962 11.0825C3.64162 11.0825 3.88161 11.0465 4.12161 10.9865C4.06161 11.2865 4.01361 11.5985 4.00161 11.9224C3.78561 16.3384 7.54157 19.9384 12.0175 19.4464C15.0775 19.1104 17.6335 16.7344 18.2455 13.7224C18.4255 12.8704 18.4255 12.0424 18.3175 11.2505C18.2095 10.5305 18.7735 9.89447 19.5055 9.89447H24.3894V5.08252H11.4655ZM3.38962 8.68248C3.05362 8.68248 2.78962 8.41849 2.78962 8.08249C2.78962 7.74649 3.05362 7.4825 3.38962 7.4825C3.72561 7.4825 3.98961 7.74649 3.98961 8.08249C3.98961 8.41849 3.72561 8.68248 3.38962 8.68248ZM11.1895 15.8824C9.19756 15.8824 7.58957 14.2744 7.58957 12.2824C7.58957 10.2905 9.19756 8.68248 11.1895 8.68248C13.1815 8.68248 14.7895 10.2905 14.7895 12.2824C14.7895 14.2744 13.1815 15.8824 11.1895 15.8824Z" fill="#FF80DB"/>
<path d="M11.1895 14.6824C12.515 14.6824 13.5895 13.6079 13.5895 12.2825C13.5895 10.957 12.515 9.88248 11.1895 9.88248C9.86406 9.88248 8.78955 10.957 8.78955 12.2825C8.78955 13.6079 9.86406 14.6824 11.1895 14.6824Z" fill="#FF80DB"/>
</g>
<defs>
<clipPath id="clip0_138_12492">
<rect width="24" height="24" fill="white" transform="translate(0.314453 0.00134277)"/>
</clipPath>
</defs>
</svg>
