<svg width="25" height="25" viewBox="0 0 25 25" fill="none" xmlns="http://www.w3.org/2000/svg">
<path d="M13.8399 18.3409C13.1031 19.0892 12.689 20.1036 12.689 21.1621V22.5013H14.0075C15.0497 22.5013 16.0483 22.0807 16.7851 21.3324L22.9537 15.0668C23.7665 14.2412 23.7665 12.901 22.9537 12.0754C22.1408 11.2497 20.8213 11.2497 20.0085 12.0754L13.8399 18.3409ZM12.5585 17.0394L17.1503 12.3763H15.4085C14.2232 12.3708 14.2241 10.54 15.4085 10.5354H19.0135C20.2541 9.44193 22.197 9.31307 23.5645 10.2354V6.85362C23.5645 4.31592 21.5318 2.25134 19.0334 2.25134H6.34551C3.84709 2.25134 1.81445 4.31592 1.81445 6.85362V16.0582C1.81445 18.5959 3.84709 20.6604 6.34551 20.6604H10.901C11.0152 19.2926 11.5916 18.0215 12.5585 17.0394ZM15.4085 6.85362H19.0334C20.2187 6.85914 20.2178 8.68992 19.0334 8.69452H15.4085C14.2232 8.689 14.2241 6.85822 15.4085 6.85362ZM4.53309 13.2968V12.3763C3.34776 12.3708 3.34867 10.54 4.53309 10.5354V9.61498C4.53309 8.09255 5.75285 6.85362 7.25173 6.85362H9.06415C10.563 6.85362 11.7828 8.09255 11.7828 9.61498C11.7774 10.8189 9.97489 10.8189 9.97036 9.61498C9.97036 9.10781 9.56438 8.69452 9.06415 8.69452H7.25173C6.7515 8.69452 6.34551 9.10781 6.34551 9.61498V10.5354H8.15794C9.34326 10.541 9.34236 12.3717 8.15794 12.3763H6.34551V13.2968C6.34551 13.804 6.7515 14.2173 7.25173 14.2173H9.06415C9.56438 14.2173 9.97036 13.804 9.97036 13.2968C9.97489 12.0928 11.7783 12.0928 11.7828 13.2968C11.7828 14.8192 10.563 16.0582 9.06415 16.0582H7.25173C5.75285 16.0582 4.53309 14.8192 4.53309 13.2968Z" fill="#65B458"/>
</svg>
