<svg width="82" height="86" viewBox="0 0 82 86" fill="none" xmlns="http://www.w3.org/2000/svg">
<mask id="mask0_113_589" style="mask-type:alpha" maskUnits="userSpaceOnUse" x="3" y="12" width="75" height="74">
<path d="M40.5947 85.8639C60.8858 85.8639 77.335 69.4148 77.335 49.1237C77.335 28.8326 60.8858 12.3834 40.5947 12.3834C20.3037 12.3834 3.85449 28.8326 3.85449 49.1237C3.85449 69.4148 20.3037 85.8639 40.5947 85.8639Z" fill="white"/>
</mask>
<g mask="url(#mask0_113_589)">
<path d="M40.5947 85.8639C60.8858 85.8639 77.335 69.4148 77.335 49.1237C77.335 28.8326 60.8858 12.3834 40.5947 12.3834C20.3037 12.3834 3.85449 28.8326 3.85449 49.1237C3.85449 69.4148 20.3037 85.8639 40.5947 85.8639Z" fill="#E6E6E6"/>
<path d="M77.335 12.3834H3.85449V85.8639H77.335V12.3834Z" fill="#EF5A3C"/>
</g>
<mask id="mask1_113_589" style="mask-type:alpha" maskUnits="userSpaceOnUse" x="0" y="0" width="82" height="86">
<path d="M3.85078 49.1243C3.85078 69.4154 20.3 85.8646 40.591 85.8646C60.8821 85.8646 77.3313 69.4154 77.3313 49.1243H81.0053V0.137329H0.176758V49.1243H3.85078Z" fill="white"/>
</mask>
<g mask="url(#mask1_113_589)">
<mask id="mask2_113_589" style="mask-type:alpha" maskUnits="userSpaceOnUse" x="9" y="11" width="63" height="75">
<path d="M47.9347 55.4342V61.0643H49.1593C61.334 61.0643 71.2035 70.9338 71.2035 83.1085V85.864H9.96973V83.1085C9.96973 70.9338 19.8392 61.0643 32.0139 61.0643H33.2386V55.4342C27.961 52.9271 24.1675 47.8032 23.5346 41.7393C21.7512 41.4872 20.3795 39.9546 20.3795 38.1017V33.8153C20.3795 31.9948 21.7035 30.4836 23.4412 30.1921V28.3043C23.4412 18.8351 31.1174 11.1588 40.5866 11.1588C50.0558 11.1588 57.7321 18.8351 57.7321 28.3043V30.1921C59.4697 30.4836 60.7937 31.9948 60.7937 33.8153V38.1017C60.7937 39.9546 59.422 41.4872 57.6386 41.7393C57.0058 47.8032 53.2122 52.9271 47.9347 55.4342Z" fill="white"/>
</mask>
<g mask="url(#mask2_113_589)">
<path d="M47.9347 55.4341V61.0643H49.1593C61.334 61.0643 71.2035 70.9338 71.2035 83.1084V85.8639H9.96973V83.1084C9.96973 70.9338 19.8392 61.0643 32.0139 61.0643H33.2386V55.4341C27.961 52.927 24.1675 47.8032 23.5346 41.7393C21.7512 41.4872 20.3795 39.9546 20.3795 38.1016V33.8152C20.3795 31.9948 21.7035 30.4835 23.4412 30.192V28.3042C23.4412 18.835 31.1174 11.1588 40.5866 11.1588C50.0558 11.1588 57.7321 18.835 57.7321 28.3042V30.192C59.4697 30.4835 60.7937 31.9948 60.7937 33.8152V38.1016C60.7937 39.9546 59.422 41.4872 57.6386 41.7393C57.0058 47.8032 53.2122 52.927 47.9347 55.4341Z" fill="#D0C6AC"/>
<path d="M90.7983 11.1589H9.96973V96.8861H90.7983V11.1589Z" fill="#FFDBB4"/>
<path fill-rule="evenodd" clip-rule="evenodd" d="M57.7313 35.3461V42.388C57.7313 51.8572 50.0551 59.5335 40.5859 59.5335C31.1167 59.5335 23.4404 51.8572 23.4404 42.388V35.3461V39.9387C23.4404 49.4078 31.1167 57.0841 40.5859 57.0841C50.0551 57.0841 57.7313 49.4078 57.7313 39.9387V35.3461Z" fill="black" fill-opacity="0.1"/>
</g>
<mask id="mask3_113_589" style="mask-type:alpha" maskUnits="userSpaceOnUse" x="20" y="61" width="41" height="25">
<path fill-rule="evenodd" clip-rule="evenodd" d="M28.9536 61.276V74.8428H52.2224V61.276C55.089 61.6743 57.7793 62.6239 60.1828 64.0142L60.1828 85.8649H57.4273H23.7487H20.9932V64.0142C23.3966 62.6239 26.0869 61.6743 28.9536 61.276Z" fill="white"/>
</mask>
<g mask="url(#mask3_113_589)">
<path fill-rule="evenodd" clip-rule="evenodd" d="M28.9536 61.276V74.8428H52.2224V61.276C55.089 61.6743 57.7793 62.6239 60.1828 64.0142L60.1828 85.8649H57.4273H23.7487H20.9932V64.0142C23.3966 62.6239 26.0869 61.6743 28.9536 61.276Z" fill="#B7C1DB"/>
<path d="M81.0014 52.1863H0.172852V85.8649H81.0014V52.1863Z" fill="#E6E6E6"/>
<path d="M24.9752 79.1287C25.8206 79.1287 26.506 78.4433 26.506 77.5979C26.506 76.7524 25.8206 76.067 24.9752 76.067C24.1297 76.067 23.4443 76.7524 23.4443 77.5979C23.4443 78.4433 24.1297 79.1287 24.9752 79.1287Z" fill="#F4F4F4"/>
<path d="M56.2017 79.1287C57.0472 79.1287 57.7326 78.4433 57.7326 77.5979C57.7326 76.7524 57.0472 76.067 56.2017 76.067C55.3563 76.067 54.6709 76.7524 54.6709 77.5979C54.6709 78.4433 55.3563 79.1287 56.2017 79.1287Z" fill="#F4F4F4"/>
</g>
<path fill-rule="evenodd" clip-rule="evenodd" d="M36.3018 45.7565C36.3018 48.1238 38.2208 50.0428 40.5881 50.0428C42.9554 50.0428 44.8745 48.1238 44.8745 45.7565" fill="black" fill-opacity="0.7"/>
<path fill-rule="evenodd" clip-rule="evenodd" d="M36.917 39.9401C36.917 41.2929 38.5619 42.3895 40.591 42.3895C42.6201 42.3895 44.265 41.2929 44.265 39.9401" fill="black" fill-opacity="0.16"/>
<path fill-rule="evenodd" clip-rule="evenodd" d="M28.3918 34.5664C28.9572 33.4033 30.2301 32.5924 31.7099 32.5924C33.1844 32.5924 34.4536 33.3976 35.022 34.5541C35.1908 34.8976 34.9505 35.1788 34.7082 34.9704C33.9578 34.3253 32.892 33.9223 31.7099 33.9223C30.5647 33.9223 29.5288 34.3004 28.7829 34.9106C28.5102 35.1337 28.2265 34.9065 28.3918 34.5664Z" fill="black" fill-opacity="0.6"/>
<path fill-rule="evenodd" clip-rule="evenodd" d="M46.1477 34.5664C46.713 33.4033 47.986 32.5924 49.4658 32.5924C50.9403 32.5924 52.2095 33.3976 52.7778 34.5541C52.9466 34.8976 52.7064 35.1788 52.4641 34.9704C51.7136 34.3253 50.6479 33.9223 49.4658 33.9223C48.3206 33.9223 47.2847 34.3004 46.5388 34.9106C46.266 35.1337 45.9823 34.9065 46.1477 34.5664Z" fill="black" fill-opacity="0.6"/>
<path d="M28.3394 30.4879C28.7972 27.5722 32.6511 25.5833 35.4388 26.8669C35.746 27.0083 36.1097 26.874 36.2511 26.5668C36.3925 26.2596 36.2582 25.8959 35.951 25.7545C32.4338 24.135 27.7148 26.5703 27.1296 30.2979C27.0771 30.632 27.3054 30.9454 27.6395 30.9979C27.9736 31.0503 28.287 30.822 28.3394 30.4879Z" fill="black" fill-opacity="0.6"/>
<path d="M52.8481 30.4879C52.3903 27.5722 48.5364 25.5833 45.7487 26.8669C45.4415 27.0083 45.0778 26.874 44.9364 26.5668C44.795 26.2596 44.9293 25.8959 45.2365 25.7545C48.7537 24.135 53.4727 26.5703 54.0579 30.2979C54.1104 30.632 53.8821 30.9454 53.548 30.9979C53.2139 31.0503 52.9005 30.822 52.8481 30.4879Z" fill="black" fill-opacity="0.6"/>
<mask id="mask4_113_589" style="mask-type:alpha" maskUnits="userSpaceOnUse" x="0" y="0" width="82" height="86">
<path d="M81.0014 0.137329H0.172852V85.8646H81.0014V0.137329Z" fill="white"/>
</mask>
<g mask="url(#mask4_113_589)">
<path fill-rule="evenodd" clip-rule="evenodd" d="M57.7258 30.1223V30.1925C59.3042 30.4573 60.5414 31.7285 60.7548 33.3237C61.5375 32.434 62.0122 31.2667 62.0122 29.9886C62.0122 29.3365 61.8886 28.7132 61.6636 28.1409C62.6327 27.2205 63.2369 25.9196 63.2369 24.4776C63.2369 22.6907 62.3092 21.1206 60.9092 20.2225C61.2237 19.5639 61.3998 18.8265 61.3998 18.048C61.3998 15.7105 59.8122 13.7437 57.6564 13.1673C57.7021 12.8618 57.7258 12.5491 57.7258 12.2308C57.7258 8.76441 54.9157 5.95434 51.4494 5.95434C50.6444 5.95434 49.8748 6.10587 49.1676 6.38197C48.0256 4.82328 46.1816 3.81116 44.1013 3.81116C42.7963 3.81116 41.5844 4.20941 40.5804 4.89101C39.5763 4.20941 38.3644 3.81116 37.0594 3.81116C34.9791 3.81116 33.1351 4.82328 31.9931 6.38197C31.2859 6.10587 30.5163 5.95434 29.7114 5.95434C26.245 5.95434 23.4349 8.76441 23.4349 12.2308C23.4349 12.5491 23.4586 12.8618 23.5043 13.1673C21.3485 13.7437 19.7609 15.7105 19.7609 18.048C19.7609 18.719 19.8917 19.3595 20.1293 19.9453C18.4598 20.7698 17.3115 22.4896 17.3115 24.4776C17.3115 26.1425 18.1169 27.6193 19.3594 28.5396C19.2222 28.9986 19.1485 29.485 19.1485 29.9886C19.1485 31.2667 19.6232 32.434 20.4059 33.3237C20.6193 31.7285 21.8565 30.4573 23.4349 30.1925V30.1223C23.4434 30.1288 23.4519 30.1353 23.4604 30.1417C24.3491 15.7066 38.3002 20.8777 40.5804 12.793C42.8605 20.8777 56.8116 15.7066 57.7003 30.1417C57.7088 30.1353 57.7173 30.1288 57.7258 30.1223ZM33.2323 55.4346V56.7208C32.9827 56.7587 32.7271 56.7784 32.4669 56.7784C30.3785 56.7784 28.5861 55.5112 27.8167 53.7038C25.1965 53.5173 23.1287 51.3326 23.1287 48.6649C23.1287 48.2145 23.1877 47.7779 23.2982 47.3624C21.2481 46.719 19.7609 44.8039 19.7609 42.5415C19.7609 41.3951 20.1428 40.3378 20.7863 39.49C21.3182 40.5119 22.3164 41.2523 23.4988 41.4293C24.0325 47.6284 27.8649 52.8848 33.2323 55.4346ZM47.9284 55.4346V56.7208C48.178 56.7587 48.4336 56.7784 48.6938 56.7784C50.7822 56.7784 52.5746 55.5112 53.344 53.7038C55.9642 53.5173 58.032 51.3326 58.032 48.6649C58.032 48.2145 57.973 47.7779 57.8625 47.3624C59.9126 46.719 61.3998 44.8039 61.3998 42.5415C61.3998 41.3951 61.0179 40.3378 60.3744 39.49C59.8425 40.5119 58.8443 41.2523 57.6619 41.4293C57.1282 47.6284 53.2958 52.8848 47.9284 55.4346Z" fill="#1F3540"/>
<g opacity="0.9" filter="url(#filter0_d_113_589)">
<path d="M54.6848 18.1864C54.6848 18.1864 53.1547 20.8972 56.3296 22.0493C58.4048 22.8023 60.459 21.6814 60.459 21.6814C60.459 21.6814 59.8052 18.6447 57.4187 17.7787C55.5511 17.101 54.6848 18.1864 54.6848 18.1864Z" fill="#5DD362"/>
<path d="M60.4568 21.6842C60.4568 21.6842 59.8026 18.645 57.4151 17.7783C56.1695 17.3262 55.3643 17.6643 54.959 17.9374C54.545 17.2035 54.5104 16.6539 54.518 16.6333C54.5273 16.5433 54.4593 16.4719 54.3763 16.4418C54.3555 16.4342 54.314 16.4192 54.2857 16.4322C54.1668 16.4358 54.0802 16.5444 54.0841 16.6626C54.0823 16.732 54.1875 18.0543 55.4944 19.3692C57.3417 21.394 60.4568 21.6842 60.4568 21.6842Z" fill="#42BC53"/>
</g>
<g filter="url(#filter1_d_113_589)">
<path fill-rule="evenodd" clip-rule="evenodd" d="M50.7545 8.4056C52.3701 7.47388 53.0112 4.97833 53.0112 4.97833C53.0112 4.97833 50.7512 3.69531 48.3394 4.83816C45.9277 5.98101 46.3963 8.01372 46.3963 8.01372C46.3963 8.01372 48.4238 9.74973 50.7545 8.4056Z" fill="#5DD362"/>
<path fill-rule="evenodd" clip-rule="evenodd" d="M45.1719 9.14283C45.1873 9.16942 45.2026 9.19601 45.2445 9.20732C45.3743 9.3097 45.5794 9.29776 45.6811 9.16816C46.0018 8.80596 46.3112 8.48563 46.678 8.2032C47.281 8.63533 48.9236 9.46043 50.7518 8.40585C52.3681 7.47354 53.0094 4.97644 53.0094 4.97644C53.0094 4.97644 52.6565 5.03821 52.0609 5.16906C51.8977 5.1923 47.6584 5.865 45.2191 8.79654C45.1285 8.88427 45.1105 9.03647 45.1719 9.14283Z" fill="#42BC53"/>
</g>
<g filter="url(#filter2_d_113_589)">
<path fill-rule="evenodd" clip-rule="evenodd" d="M27.5345 16.8202C25.9189 17.752 25.2778 20.2475 25.2778 20.2475C25.2778 20.2475 27.5379 21.5305 29.9496 20.3877C32.3613 19.2448 31.8927 17.2121 31.8927 17.2121C31.8927 17.2121 29.8652 15.4761 27.5345 16.8202Z" fill="#5DD362"/>
<path fill-rule="evenodd" clip-rule="evenodd" d="M33.1171 16.083C33.1018 16.0564 33.0864 16.0298 33.0446 16.0185C32.9147 15.9161 32.7097 15.9281 32.6079 16.0577C32.2873 16.4199 31.9778 16.7402 31.6111 17.0226C31.0081 16.5905 29.3655 15.7654 27.5372 16.82C25.921 17.7523 25.2796 20.2494 25.2796 20.2494C25.2796 20.2494 25.6325 20.1876 26.2282 20.0568C26.3914 20.0335 30.6306 19.3608 33.07 16.4293C33.1606 16.3416 33.1786 16.1894 33.1171 16.083Z" fill="#42BC53"/>
</g>
<g filter="url(#filter3_d_113_589)">
<path d="M20.8549 15.4337C20.599 15.0941 20.4907 14.6751 20.5498 14.2539C20.6089 13.8327 20.8287 13.4599 21.168 13.2041C21.2596 13.135 21.3805 13.0784 21.5177 13.0302C21.3788 12.9869 21.2562 12.9345 21.1623 12.8688C20.4432 12.3653 20.2677 11.3706 20.7713 10.6514C21.2749 9.93227 22.2696 9.75699 22.9886 10.2605C23.0825 10.3262 23.1737 10.4235 23.262 10.5393C23.2602 10.3938 23.2722 10.261 23.3058 10.1513C23.4301 9.74466 23.7055 9.41057 24.081 9.21113C24.4564 9.01144 24.8872 8.97015 25.294 9.09429C26.1335 9.35106 26.6076 10.2428 26.3511 11.0823C26.3176 11.1914 26.255 11.3074 26.1727 11.4264C26.3099 11.3801 26.4388 11.3521 26.5529 11.3501C27.4307 11.3348 28.1572 12.0364 28.1726 12.9142C28.1784 13.2628 28.0717 13.5873 27.8856 13.8531C27.6029 14.2565 27.1377 14.5246 26.6085 14.5337C26.4944 14.5357 26.3647 14.5121 26.2261 14.4707C26.3124 14.5868 26.3789 14.7006 26.4161 14.8085C26.5884 15.309 26.496 15.8377 26.2133 16.2414C26.0272 16.5072 25.7585 16.7188 25.4291 16.8321C24.599 17.1179 23.6912 16.6749 23.4056 15.845C23.3684 15.7371 23.3508 15.6064 23.3472 15.4616C23.2635 15.5796 23.1759 15.6783 23.0848 15.7469C22.7451 16.0029 22.3262 16.1111 21.9051 16.052C21.4836 15.9929 21.1107 15.7733 20.8549 15.4337Z" fill="#CB402F"/>
<path fill-rule="evenodd" clip-rule="evenodd" d="M24.911 11.6621C24.9824 11.4285 24.851 11.1812 24.6174 11.1099C24.3839 11.0385 24.1366 11.1699 24.0653 11.4035C23.9939 11.6371 24.1363 12.6837 24.1363 12.6837C24.1363 12.6837 24.8397 11.8956 24.911 11.6621ZM25.5977 13.4371C25.842 13.4327 26.0365 13.2314 26.0322 12.9872C26.0278 12.7429 25.8265 12.5484 25.5823 12.5527C25.338 12.557 24.3865 13.0159 24.3865 13.0159C24.3865 13.0159 25.3536 13.4412 25.5977 13.4371ZM23.743 12.8191C23.743 12.8191 23.2109 11.9066 23.0108 11.7665C22.8107 11.6264 22.535 11.675 22.3948 11.8751C22.2547 12.0752 22.3033 12.3509 22.5034 12.491C22.7036 12.6311 23.743 12.8191 23.743 12.8191ZM24.6839 14.9127C24.9149 14.8332 25.0375 14.5816 24.9581 14.3506C24.8786 14.1196 24.148 13.3566 24.148 13.3566C24.148 13.3566 24.0422 14.4076 24.1217 14.6386C24.2012 14.8695 24.4529 14.9921 24.6839 14.9127ZM23.0553 14.3124C23.2504 14.1655 23.7503 13.2349 23.7503 13.2349C23.7503 13.2349 22.7181 13.4591 22.523 13.606C22.3279 13.753 22.2889 14.0304 22.436 14.2254C22.5829 14.4205 22.8603 14.4594 23.0553 14.3124Z" fill="white"/>
</g>
<g filter="url(#filter4_d_113_589)">
<path d="M35.8425 15.1712L35.9217 14.4627L36.6301 14.3833C37.5017 14.2855 38.1947 13.7352 38.4836 12.9105C38.8099 11.979 38.5035 10.9636 37.7039 10.3749L37.1301 9.95248L37.4155 9.29918C37.7915 8.43996 37.6129 7.49414 36.9498 6.83098C36.2866 6.16781 35.3408 5.98925 34.4814 6.36508L33.8283 6.65068L33.4057 6.07671C32.817 5.27811 31.8014 4.97086 30.8699 5.29716C30.0455 5.58605 29.4949 6.279 29.3974 7.1507L29.3181 7.85906L28.6097 7.93839C27.7379 8.03607 27.0449 8.58666 26.756 9.41107C26.469 10.2305 26.6647 11.1137 27.2669 11.7159L27.2671 11.7161C27.3494 11.7984 27.4396 11.8758 27.5356 11.9465L28.1095 12.3691L27.8238 13.0224C27.4483 13.8818 27.6268 14.8276 28.29 15.4907C28.9532 16.1539 29.899 16.3325 30.7584 15.957L31.4117 15.6712L31.8343 16.2452C32.4212 17.0445 33.4386 17.351 34.3702 17.0249C35.1946 16.7357 35.745 16.0429 35.8425 15.1712Z" fill="#FEA255"/>
<path fill-rule="evenodd" clip-rule="evenodd" d="M33.5003 12.75C33.5633 12.9852 33.4237 13.227 33.1885 13.29C32.9533 13.3531 32.7114 13.2133 32.6485 12.9783C32.5856 12.7432 32.618 11.1608 32.618 11.1608C32.618 11.1608 31.8549 12.5474 31.6828 12.7195C31.5108 12.8915 31.2314 12.8917 31.0593 12.7195C30.8871 12.5474 30.8873 12.268 31.0593 12.096C31.2314 11.9239 32.618 11.1608 32.618 11.1608C32.618 11.1608 31.0357 11.1933 30.8005 11.1303C30.5653 11.0672 30.4257 10.8255 30.4888 10.5903C30.5518 10.3551 30.7936 10.2155 31.0288 10.2785C31.264 10.3415 32.618 11.1608 32.618 11.1608C32.618 11.1608 31.7988 9.80672 31.7358 9.57152C31.6727 9.33632 31.8123 9.09454 32.0475 9.0315C32.2827 8.96845 32.5245 9.10805 32.5876 9.34325C32.6506 9.57845 32.618 11.1608 32.618 11.1608C32.618 11.1608 33.3811 9.77416 33.5533 9.602C33.7254 9.42985 34.0046 9.42985 34.1768 9.602C34.3489 9.77416 34.3489 10.0533 34.1768 10.2255C34.0046 10.3977 32.618 11.1608 32.618 11.1608C32.618 11.1608 34.2005 11.1284 34.4355 11.1912C34.6706 11.2541 34.8103 11.4961 34.7473 11.7313C34.6843 11.9665 34.4425 12.1061 34.2073 12.043C33.9721 11.98 32.618 11.1608 32.618 11.1608C32.618 11.1608 33.4371 12.5146 33.5003 12.75Z" fill="white"/>
</g>
<g filter="url(#filter5_d_113_589)">
<path d="M58.2666 17.2294C58.6307 16.7461 58.7849 16.1499 58.7007 15.5505C58.6166 14.9511 58.3039 14.4206 57.8209 14.0565C57.6906 13.9582 57.5186 13.8776 57.3234 13.809C57.521 13.7475 57.6955 13.6729 57.8291 13.5794C58.8524 12.8629 59.1021 11.4474 58.3855 10.4239C57.6689 9.4005 56.2533 9.15107 55.2301 9.86754C55.0965 9.96111 54.9667 10.0996 54.8411 10.2644C54.8436 10.0573 54.8265 9.86832 54.7787 9.71221C54.6018 9.13352 54.2099 8.65809 53.6756 8.37426C53.1413 8.09009 52.5283 8.03133 51.9494 8.20799C50.7548 8.5734 50.08 9.84242 50.4451 11.037C50.4927 11.1924 50.5818 11.3574 50.6989 11.5268C50.5037 11.4609 50.3202 11.421 50.1579 11.4182C48.9087 11.3964 47.8749 12.3948 47.8529 13.6441C47.8446 14.14 47.9965 14.6019 48.2613 14.9801C48.6636 15.5542 49.3257 15.9358 50.0788 15.9487C50.2411 15.9515 50.4257 15.9179 50.6229 15.859C50.5002 16.0243 50.4055 16.1862 50.3525 16.3397C50.1073 17.052 50.2389 17.8044 50.6412 18.3789C50.906 18.7571 51.2883 19.0582 51.7571 19.2195C52.9384 19.6262 54.2302 18.9958 54.6368 17.8147C54.6897 17.6612 54.7147 17.4753 54.7198 17.2692C54.8389 17.4372 54.9636 17.5775 55.0932 17.6752C55.5766 18.0395 56.1727 18.1934 56.7721 18.1093C57.3718 18.0253 57.9025 17.7127 58.2666 17.2294Z" fill="#FBB861"/>
<path fill-rule="evenodd" clip-rule="evenodd" d="M52.4949 11.8629C52.3934 11.5305 52.5803 11.1786 52.9128 11.0771C53.2452 10.9755 53.597 11.1625 53.6986 11.4949C53.8001 11.8273 53.5975 13.3168 53.5975 13.3168C53.5975 13.3168 52.5965 12.1953 52.4949 11.8629ZM51.5178 14.3888C51.1702 14.3827 50.8934 14.0962 50.8995 13.7486C50.9057 13.401 51.1922 13.1242 51.5398 13.1304C51.8873 13.1365 53.2414 13.7895 53.2414 13.7895C53.2414 13.7895 51.8652 14.3948 51.5178 14.3888ZM54.1571 13.5094C54.1571 13.5094 54.9144 12.2109 55.1992 12.0115C55.484 11.8121 55.8763 11.8812 56.0757 12.166C56.2751 12.4508 56.2059 12.8431 55.9211 13.0425C55.6364 13.2419 54.1571 13.5094 54.1571 13.5094ZM52.8182 16.4888C52.4895 16.3757 52.3149 16.0175 52.428 15.6888C52.5411 15.3601 53.5808 14.2743 53.5808 14.2743C53.5808 14.2743 53.7314 15.7701 53.6183 16.0988C53.505 16.4273 53.1469 16.6018 52.8182 16.4888ZM55.1359 15.6345C54.8582 15.4254 54.1467 14.1012 54.1467 14.1012C54.1467 14.1012 55.6157 14.4202 55.8933 14.6293C56.1709 14.8384 56.2264 15.2332 56.0172 15.5106C55.8081 15.7883 55.4133 15.8438 55.1359 15.6345Z" fill="white"/>
</g>
<g filter="url(#filter6_d_113_589)">
<path d="M51.6484 9.79634C52.2071 7.65826 49.8132 5.9954 48.9072 5.45342C49.0647 4.55513 49.4194 1.60763 47.5394 0.519258C45.6703 -0.562782 43.3163 1.19398 42.6053 1.7893C42.5439 1.75094 42.4719 1.7072 42.3898 1.65971C41.451 1.11623 39.0931 0.0213176 37.4765 1.58795C35.7481 3.26211 36.7685 5.8752 37.1566 6.70027C36.4955 7.31593 34.5895 9.33085 35.3753 11.4734C35.5914 12.064 35.9911 12.5314 36.5638 12.8629C37.7979 13.5774 39.5052 13.4622 40.153 13.3855C40.4571 13.9612 41.3257 15.4406 42.568 16.1597C43.0793 16.4558 43.6014 16.5923 44.1205 16.5654C46.2346 16.4558 47.1565 13.5052 47.3873 12.612C48.2632 12.4907 51.0877 11.9389 51.6484 9.79634Z" fill="#B3222F"/>
<path fill-rule="evenodd" clip-rule="evenodd" d="M43.5724 7.97629C43.5724 7.97629 44.7006 10.4831 43.6806 10.6433C42.6597 10.8025 43.2335 8.01259 43.2335 8.01259C43.2335 8.01259 41.0561 9.85188 40.7382 8.93989C40.42 8.02772 43.0961 7.70055 43.0961 7.70055C43.0961 7.70055 40.6505 6.26383 41.4447 5.60746C42.2389 4.9511 43.3478 7.47252 43.3478 7.47252C43.3478 7.47252 43.9432 4.74178 44.8237 5.25153C45.7042 5.76127 43.6428 7.64325 43.6428 7.64325C43.6428 7.64325 46.3606 7.34026 46.2052 8.36338C46.0506 9.38655 43.5724 7.97629 43.5724 7.97629Z" fill="white"/>
</g>
<path d="M58.9551 39.9397C58.9551 39.7706 58.818 39.6335 58.6489 39.6335C58.4798 39.6335 58.3428 39.7706 58.3428 39.9397V51.268C58.3428 51.4371 58.4798 51.5741 58.6489 51.5741C58.818 51.5741 58.9551 51.4371 58.9551 51.268V39.9397Z" fill="#E6E6E6"/>
<path d="M61.7083 50.9615H58.8212L60.7898 45.7566H57.422L55.585 52.1861H58.229L56.8096 58.0033L61.7083 50.9615Z" fill="#FBB861"/>
</g>
</g>
<defs>
<filter id="filter0_d_113_589" x="50.084" y="14.4271" width="14.375" height="13.8824" filterUnits="userSpaceOnUse" color-interpolation-filters="sRGB">
<feFlood flood-opacity="0" result="BackgroundImageFix"/>
<feColorMatrix in="SourceAlpha" type="matrix" values="0 0 0 0 0 0 0 0 0 0 0 0 0 0 0 0 0 0 127 0" result="hardAlpha"/>
<feOffset dy="2"/>
<feGaussianBlur stdDeviation="2"/>
<feColorMatrix type="matrix" values="0 0 0 0 0 0 0 0 0 0 0 0 0 0 0 0 0 0 0.2 0"/>
<feBlend mode="normal" in2="BackgroundImageFix" result="effect1_dropShadow_113_589"/>
<feBlend mode="normal" in="SourceGraphic" in2="effect1_dropShadow_113_589" result="shape"/>
</filter>
<filter id="filter1_d_113_589" x="41.1357" y="2.3642" width="15.8755" height="12.9116" filterUnits="userSpaceOnUse" color-interpolation-filters="sRGB">
<feFlood flood-opacity="0" result="BackgroundImageFix"/>
<feColorMatrix in="SourceAlpha" type="matrix" values="0 0 0 0 0 0 0 0 0 0 0 0 0 0 0 0 0 0 127 0" result="hardAlpha"/>
<feOffset dy="2"/>
<feGaussianBlur stdDeviation="2"/>
<feColorMatrix type="matrix" values="0 0 0 0 0 0 0 0 0 0 0 0 0 0 0 0 0 0 0.2 0"/>
<feBlend mode="normal" in2="BackgroundImageFix" result="effect1_dropShadow_113_589"/>
<feBlend mode="normal" in="SourceGraphic" in2="effect1_dropShadow_113_589" result="shape"/>
</filter>
<filter id="filter2_d_113_589" x="21.2778" y="13.9501" width="15.8755" height="12.9116" filterUnits="userSpaceOnUse" color-interpolation-filters="sRGB">
<feFlood flood-opacity="0" result="BackgroundImageFix"/>
<feColorMatrix in="SourceAlpha" type="matrix" values="0 0 0 0 0 0 0 0 0 0 0 0 0 0 0 0 0 0 127 0" result="hardAlpha"/>
<feOffset dy="2"/>
<feGaussianBlur stdDeviation="2"/>
<feColorMatrix type="matrix" values="0 0 0 0 0 0 0 0 0 0 0 0 0 0 0 0 0 0 0.2 0"/>
<feBlend mode="normal" in2="BackgroundImageFix" result="effect1_dropShadow_113_589"/>
<feBlend mode="normal" in="SourceGraphic" in2="effect1_dropShadow_113_589" result="shape"/>
</filter>
<filter id="filter3_d_113_589" x="16.4839" y="7.02405" width="15.689" height="15.8949" filterUnits="userSpaceOnUse" color-interpolation-filters="sRGB">
<feFlood flood-opacity="0" result="BackgroundImageFix"/>
<feColorMatrix in="SourceAlpha" type="matrix" values="0 0 0 0 0 0 0 0 0 0 0 0 0 0 0 0 0 0 127 0" result="hardAlpha"/>
<feOffset dy="2"/>
<feGaussianBlur stdDeviation="2"/>
<feColorMatrix type="matrix" values="0 0 0 0 0 0 0 0 0 0 0 0 0 0 0 0 0 0 0.2 0"/>
<feBlend mode="normal" in2="BackgroundImageFix" result="effect1_dropShadow_113_589"/>
<feBlend mode="normal" in="SourceGraphic" in2="effect1_dropShadow_113_589" result="shape"/>
</filter>
<filter id="filter4_d_113_589" x="22.626" y="3.16858" width="19.9863" height="19.9849" filterUnits="userSpaceOnUse" color-interpolation-filters="sRGB">
<feFlood flood-opacity="0" result="BackgroundImageFix"/>
<feColorMatrix in="SourceAlpha" type="matrix" values="0 0 0 0 0 0 0 0 0 0 0 0 0 0 0 0 0 0 127 0" result="hardAlpha"/>
<feOffset dy="2"/>
<feGaussianBlur stdDeviation="2"/>
<feColorMatrix type="matrix" values="0 0 0 0 0 0 0 0 0 0 0 0 0 0 0 0 0 0 0.2 0"/>
<feBlend mode="normal" in2="BackgroundImageFix" result="effect1_dropShadow_113_589"/>
<feBlend mode="normal" in="SourceGraphic" in2="effect1_dropShadow_113_589" result="shape"/>
</filter>
<filter id="filter5_d_113_589" x="43.8525" y="6.10803" width="18.9419" height="19.235" filterUnits="userSpaceOnUse" color-interpolation-filters="sRGB">
<feFlood flood-opacity="0" result="BackgroundImageFix"/>
<feColorMatrix in="SourceAlpha" type="matrix" values="0 0 0 0 0 0 0 0 0 0 0 0 0 0 0 0 0 0 127 0" result="hardAlpha"/>
<feOffset dy="2"/>
<feGaussianBlur stdDeviation="2"/>
<feColorMatrix type="matrix" values="0 0 0 0 0 0 0 0 0 0 0 0 0 0 0 0 0 0 0.2 0"/>
<feBlend mode="normal" in2="BackgroundImageFix" result="effect1_dropShadow_113_589"/>
<feBlend mode="normal" in="SourceGraphic" in2="effect1_dropShadow_113_589" result="shape"/>
</filter>
<filter id="filter6_d_113_589" x="31.1885" y="-1.82556" width="24.5435" height="24.3943" filterUnits="userSpaceOnUse" color-interpolation-filters="sRGB">
<feFlood flood-opacity="0" result="BackgroundImageFix"/>
<feColorMatrix in="SourceAlpha" type="matrix" values="0 0 0 0 0 0 0 0 0 0 0 0 0 0 0 0 0 0 127 0" result="hardAlpha"/>
<feOffset dy="2"/>
<feGaussianBlur stdDeviation="2"/>
<feColorMatrix type="matrix" values="0 0 0 0 0 0 0 0 0 0 0 0 0 0 0 0 0 0 0.2 0"/>
<feBlend mode="normal" in2="BackgroundImageFix" result="effect1_dropShadow_113_589"/>
<feBlend mode="normal" in="SourceGraphic" in2="effect1_dropShadow_113_589" result="shape"/>
</filter>
</defs>
</svg>
