<svg width="25" height="25" viewBox="0 0 25 25" fill="none" xmlns="http://www.w3.org/2000/svg">
<path fill-rule="evenodd" clip-rule="evenodd" d="M12.3145 23.0013C6.23932 23.0013 1.31445 18.0765 1.31445 12.0013C1.31445 5.92621 6.23932 1.00134 12.3145 1.00134C18.3896 1.00134 23.3145 5.92621 23.3145 12.0013C23.3145 18.0765 18.3896 23.0013 12.3145 23.0013ZM12.3145 21.0013C17.285 21.0013 21.3145 16.9719 21.3145 12.0013C21.3145 7.03078 17.285 3.00134 12.3145 3.00134C7.34389 3.00134 3.31445 7.03078 3.31445 12.0013C3.31445 16.9719 7.34389 21.0013 12.3145 21.0013ZM12.3145 16.2992C13.634 16.2992 14.8438 16.9416 15.5891 18.0013L17.225 16.8508C16.109 15.264 14.292 14.2992 12.3145 14.2992C10.3369 14.2992 8.51991 15.264 7.40389 16.8508L9.0398 18.0013C9.78516 16.9416 10.995 16.2992 12.3145 16.2992ZM14.3145 12.0013V10.0013H16.3145V12.0013H14.3145ZM8.31445 10.0013V12.0013H10.3145V10.0013H8.31445Z" fill="black"/>
</svg>
