<svg width="23" height="23" viewBox="0 0 23 23" fill="none" xmlns="http://www.w3.org/2000/svg">
<path d="M11.3145 0.00134277C9.13886 0.00134277 7.01212 0.646481 5.20318 1.85518C3.39424 3.06387 1.98435 4.78184 1.15178 6.79182C0.319219 8.80181 0.101383 11.0135 0.52582 13.1473C0.950257 15.2811 1.99791 17.2411 3.53628 18.7795C5.07466 20.3179 7.03467 21.3655 9.16846 21.79C11.3023 22.2144 13.514 21.9966 15.524 21.164C17.534 20.3314 19.2519 18.9216 20.4606 17.1126C21.6693 15.3037 22.3145 13.1769 22.3145 11.0013C22.3113 8.08493 21.1514 5.28887 19.0891 3.22665C17.0269 1.16444 14.2309 0.0044971 11.3145 0.00134277V0.00134277ZM7.64779 7.33467C8.13402 7.33467 8.60033 7.52783 8.94415 7.87165C9.28797 8.21546 9.48112 8.68178 9.48112 9.16801C9.48112 10.0847 8.66071 10.0847 7.64779 10.0847C6.63487 10.0847 5.81446 10.0847 5.81446 9.16801C5.81446 8.68178 6.00761 8.21546 6.35143 7.87165C6.69524 7.52783 7.16156 7.33467 7.64779 7.33467ZM16.5816 16.1961C16.4199 16.377 16.193 16.4865 15.9507 16.5004C15.7084 16.5143 15.4705 16.4316 15.2891 16.2703C14.1685 15.3269 12.7761 14.7656 11.3145 14.668C9.8528 14.7655 8.46039 15.3268 7.33979 16.2703C7.15818 16.432 6.91979 16.5149 6.67705 16.5008C6.43432 16.4867 6.20713 16.3768 6.04546 16.1952C5.88378 16.0136 5.80088 15.7752 5.81497 15.5324C5.82907 15.2897 5.93902 15.0625 6.12062 14.9008C7.57617 13.6574 9.40249 12.9308 11.3145 12.8347C13.2264 12.9308 15.0527 13.6574 16.5083 14.9008C16.5982 14.981 16.6715 15.0781 16.7238 15.1867C16.7762 15.2952 16.8067 15.413 16.8135 15.5333C16.8203 15.6536 16.8033 15.774 16.7635 15.8878C16.7238 16.0015 16.6619 16.1063 16.5816 16.1961ZM14.9811 10.0847C13.9682 10.0847 13.1478 10.0847 13.1478 9.16801C13.1478 8.68178 13.3409 8.21546 13.6848 7.87165C14.0286 7.52783 14.4949 7.33467 14.9811 7.33467C15.4674 7.33467 15.9337 7.52783 16.2775 7.87165C16.6213 8.21546 16.8145 8.68178 16.8145 9.16801C16.8145 10.0847 15.994 10.0847 14.9811 10.0847Z" fill="#EF5A3C"/>
</svg>
