<svg width="25" height="25" viewBox="0 0 25 25" fill="none" xmlns="http://www.w3.org/2000/svg">
<path fill-rule="evenodd" clip-rule="evenodd" d="M12.3145 2.00146C6.81445 2.00146 2.31445 6.50146 2.31445 12.0015C2.31445 17.5015 6.81445 22.0015 12.3145 22.0015C17.8145 22.0015 22.3145 17.5015 22.3145 12.0015C22.3145 6.50146 17.8145 2.00146 12.3145 2.00146ZM12.3145 20.0015C7.91445 20.0015 4.31445 16.4015 4.31445 12.0015C4.31445 7.60146 7.91445 4.00146 12.3145 4.00146C16.7145 4.00146 20.3145 7.60146 20.3145 12.0015C20.3145 16.4015 16.7145 20.0015 12.3145 20.0015Z" fill="white"/>
<path fill-rule="evenodd" clip-rule="evenodd" d="M12.3149 12.0016C12.3146 12.0016 12.3145 12.0017 12.3145 12.002C12.3145 12.0022 12.3146 12.0024 12.3149 12.0024C12.3151 12.0024 12.3153 12.0022 12.3153 12.002C12.3153 12.0017 12.3151 12.0016 12.3149 12.0016ZM12.3148 12.0022L12.3146 12.002L12.3146 12.0019L12.3148 12.0021L12.3151 12.0017L12.3152 12.0018L12.3148 12.0022Z" fill="#FBB861"/>
</svg>
