<svg width="25" height="24" viewBox="0 0 25 24" fill="none" xmlns="http://www.w3.org/2000/svg">
<g clip-path="url(#clip0_113_3239)">
<path d="M11.9024 2.00098H12.1731C13.6479 2.02658 15.1175 2.37704 16.4383 3.03523C17.6474 3.63228 18.7313 4.47925 19.6076 5.50392C20.7507 6.83689 21.5339 8.47575 21.8444 10.2047C21.9461 10.7629 21.9986 11.3299 22.0054 11.8971V12.1697C21.9796 13.6395 21.6313 15.1043 20.9772 16.4216C20.3586 17.6783 19.4706 18.8006 18.3932 19.6951C17.3621 20.5531 16.1569 21.2015 14.8711 21.5842C13.9761 21.8524 13.0429 21.9907 12.1087 22.001H11.8372C11.1017 21.9859 10.3674 21.8962 9.65233 21.7225C8.70777 21.4953 7.79745 21.1273 6.95933 20.6363C5.95104 20.0463 5.04754 19.278 4.30242 18.3781C3.44865 17.3496 2.80353 16.1479 2.42213 14.8665C2.15399 13.9715 2.01568 13.0384 2.00537 12.1045V11.8321C2.02765 10.626 2.26338 9.42308 2.71163 8.30245C3.23686 6.98164 4.04939 5.77667 5.0748 4.79251C6.06909 3.83486 7.2632 3.08532 8.5597 2.61055C9.62802 2.21718 10.7643 2.01295 11.9024 2.00098ZM11.8026 2.50282C11.7927 2.66101 11.801 2.81939 11.7982 2.97777C11.8004 3.28993 11.7943 3.60208 11.801 3.91424C11.9369 3.92031 12.0733 3.91976 12.2094 3.91479C12.2166 3.7496 12.2103 3.58422 12.2124 3.41902C12.2092 3.11368 12.219 2.80797 12.2078 2.50282C12.0726 2.50134 11.9376 2.50153 11.8026 2.50282ZM8.56614 3.15199C8.70721 3.55623 8.86044 3.95604 9.00298 4.35972C9.01753 4.40042 9.03576 4.43965 9.05436 4.47851C9.18069 4.42786 9.31863 4.40061 9.43465 4.32823C9.2748 3.89066 9.11532 3.45273 8.95657 3.01479C8.82342 3.05144 8.69598 3.10576 8.56614 3.15199ZM15.0538 3.01442C14.893 3.45549 14.7323 3.89637 14.5722 4.33744C14.6987 4.38901 14.8278 4.43394 14.9569 4.47851C14.9787 4.43063 14.9995 4.38238 15.0168 4.33265C15.1558 3.93762 15.3067 3.54683 15.4429 3.15088C15.3131 3.10558 15.186 3.05236 15.0538 3.01442ZM11.6621 4.42271C10.4372 4.47538 9.22765 4.83449 8.17204 5.45751C7.17738 6.04057 6.32029 6.85457 5.68217 7.81424C5.05841 8.75365 4.6457 9.83302 4.49174 10.9507C4.36762 11.8247 4.40114 12.7201 4.58567 13.5833C4.85436 14.8535 5.46117 16.0492 6.32231 17.0201C7.133 17.9395 8.16854 18.6594 9.31532 19.0929C10.4695 19.5325 11.7319 19.6791 12.9566 19.5249C13.7135 19.4301 14.4564 19.221 15.1499 18.9032C16.3149 18.3735 17.34 17.5415 18.1008 16.5128C18.9684 15.3485 19.4864 13.9286 19.5733 12.4792C19.6523 11.2328 19.4214 9.96635 18.8958 8.83284C18.3768 7.69656 17.5647 6.69913 16.5695 5.94573C15.4877 5.12657 14.1824 4.60484 12.8328 4.45972C12.4442 4.4205 12.0525 4.39821 11.6621 4.42271ZM5.74773 4.84499C6.05196 5.20171 6.35067 5.56304 6.65307 5.92123C6.76099 5.83836 6.86301 5.74831 6.96762 5.66175C6.919 5.58256 6.85288 5.51663 6.79451 5.44499C6.57093 5.17704 6.34533 4.91074 6.12231 4.64241C6.10242 4.61976 6.08106 4.5984 6.0597 4.57704C5.95565 4.66599 5.84515 4.74831 5.74773 4.84499ZM17.6928 4.87059C17.466 5.14241 17.2354 5.41147 17.0111 5.68569C17.1133 5.77704 17.2173 5.86672 17.3271 5.94886C17.6313 5.59158 17.9317 5.23099 18.2326 4.87096C18.1312 4.77906 18.0253 4.69195 17.919 4.60576C17.8382 4.68937 17.7687 4.78274 17.6928 4.87059ZM3.72066 7.32584C3.70648 7.35328 3.6853 7.38017 3.68401 7.41221C3.71347 7.43947 3.74902 7.4588 3.78346 7.47869C4.15675 7.68845 4.52305 7.91055 4.89782 8.117C4.9678 8.00024 5.03668 7.88293 5.10132 7.76304C5.05638 7.73413 5.01108 7.70576 4.96449 7.67943C4.60298 7.47243 4.24368 7.2612 3.88125 7.05604C3.8225 7.14278 3.77591 7.23689 3.72066 7.32584ZM19.451 7.44168C19.2577 7.55733 19.0584 7.66267 18.8678 7.78274C18.9334 7.90263 18.9995 8.02252 19.0735 8.13744C19.4811 7.90411 19.889 7.67114 20.2934 7.43247C20.2306 7.31092 20.1593 7.19435 20.0892 7.07722C19.8733 7.19306 19.665 7.32252 19.451 7.44168ZM2.67185 10.1636C2.64441 10.2986 2.61881 10.4343 2.60114 10.5711C3.0643 10.6527 3.52692 10.7363 3.99045 10.815C4.01624 10.6804 4.04202 10.5455 4.0608 10.4096C3.59856 10.3234 3.13502 10.2437 2.67185 10.1636ZM20.7785 10.2612C20.4879 10.3142 20.1958 10.3599 19.9061 10.4176C19.9265 10.5531 19.9477 10.6888 19.9785 10.8223C20.2621 10.7763 20.5444 10.7229 20.8277 10.6741C21.0035 10.6395 21.1824 10.6185 21.3564 10.5761L21.3625 10.5643C21.3503 10.4339 21.3181 10.3061 21.2982 10.1769C21.1229 10.1899 20.9521 10.2352 20.7785 10.2612ZM19.9798 13.1802C19.9525 13.3142 19.9278 13.4489 19.9081 13.5842C20.3689 13.6722 20.8321 13.7478 21.2938 13.8312C21.3286 13.6975 21.351 13.5603 21.366 13.4231C20.9039 13.3417 20.4426 13.2564 19.9798 13.1802ZM3.84552 13.2142C3.43042 13.2918 3.01292 13.3571 2.59874 13.4387C2.62047 13.5734 2.64349 13.708 2.67093 13.8417C3.13521 13.7636 3.59893 13.6807 4.06246 13.5971C4.03889 13.4632 4.01697 13.329 3.99119 13.1955C3.94239 13.2001 3.89358 13.2047 3.84552 13.2142ZM18.873 16.2201C19.2776 16.4586 19.6849 16.6927 20.093 16.9251C20.1682 16.8104 20.2365 16.691 20.2986 16.5687C20.0079 16.3953 19.7129 16.2293 19.4201 16.0594C19.3052 15.9988 19.1995 15.9196 19.079 15.8702C19.0002 15.9798 18.94 16.1028 18.873 16.2201ZM4.47296 16.1264C4.20869 16.2822 3.9387 16.4286 3.67756 16.5896C3.73797 16.712 3.80777 16.8299 3.88125 16.9448C4.28935 16.7153 4.69211 16.4765 5.09911 16.2452C5.04184 16.1198 4.96835 16.0023 4.89506 15.8859C4.75123 15.9605 4.61458 16.0479 4.47296 16.1264ZM17.0109 18.3153C17.1107 18.4435 17.2188 18.5652 17.3225 18.6905C17.5214 18.9238 17.7138 19.1629 17.9164 19.3929C18.0262 19.3111 18.1289 19.2203 18.2317 19.1301C17.9312 18.7687 17.6299 18.408 17.3249 18.0505C17.2164 18.1341 17.1114 18.2225 17.0109 18.3153ZM5.75252 19.1632C5.85104 19.2557 5.95786 19.3389 6.06099 19.4264C6.13594 19.3595 6.19358 19.2768 6.25933 19.2017C6.49672 18.9164 6.73797 18.6341 6.97406 18.3478C6.87038 18.2573 6.76486 18.1689 6.65786 18.0827C6.35454 18.4415 6.0516 18.801 5.75252 19.1632ZM8.84294 20.0879C8.75196 20.3433 8.65417 20.5966 8.56725 20.8535C8.69487 20.9008 8.82231 20.9483 8.95141 20.992C9.02673 20.8164 9.08309 20.6336 9.15104 20.4553C9.24662 20.1921 9.34331 19.9293 9.43815 19.6662C9.3109 19.6175 9.18346 19.5695 9.05381 19.5275C8.97093 19.7093 8.91568 19.9021 8.84294 20.0879ZM14.5702 19.6654C14.7299 20.1069 14.8912 20.5478 15.0512 20.989C15.1831 20.9479 15.3137 20.9019 15.4402 20.8465C15.2798 20.4054 15.1243 19.9621 14.956 19.5242C14.8264 19.5684 14.6969 19.6133 14.5702 19.6654ZM11.8017 20.0877C11.7938 20.2465 11.8002 20.4056 11.7982 20.5647C11.8002 20.8767 11.7947 21.1888 11.8006 21.5008C11.9367 21.5024 12.073 21.5026 12.2091 21.5002C12.217 21.3299 12.2105 21.1592 12.2126 20.9886C12.2109 20.6885 12.2161 20.3881 12.21 20.0879C12.0739 20.0861 11.9378 20.0848 11.8017 20.0877Z" fill="#FFD15C"/>
<path d="M7.83193 7.7914C8.26342 7.7367 8.69583 7.83578 9.10762 7.95788C9.62143 8.1192 10.1157 8.33817 10.5929 8.58735C10.6461 8.61423 10.6958 8.64959 10.7533 8.66782C10.8095 8.66322 10.8625 8.64186 10.9165 8.62731C11.6542 8.42252 12.45 8.43081 13.1822 8.65438C13.229 8.67224 13.2791 8.66469 13.3207 8.63799C13.6146 8.47574 13.9189 8.33265 14.2282 8.20281C14.5758 8.05935 14.9317 7.93302 15.2993 7.85199C15.5831 7.79029 15.8767 7.75309 16.1665 7.79048C16.3783 7.81902 16.5912 7.90042 16.7397 8.05917C16.9034 8.23173 16.9682 8.47353 16.9818 8.70558C17.0032 9.08827 16.9205 9.46727 16.8181 9.83357C16.6229 10.4962 16.3406 11.1314 16.0161 11.7395C16.0157 11.7592 16.0177 11.7789 16.0222 11.7986C16.175 12.5485 16.1131 13.3404 15.8489 14.0584C15.4802 15.0735 14.6956 15.9299 13.7139 16.3811C13.1811 16.6292 12.5934 16.7582 12.0058 16.7575C11.2765 16.7597 10.5476 16.5603 9.92198 16.1857C9.38699 15.868 8.92695 15.4268 8.58478 14.9074C8.00485 14.033 7.78018 12.9341 7.96379 11.9017C7.97207 11.8339 8.00688 11.7588 7.96692 11.6949C7.81462 11.4205 7.68386 11.1347 7.55752 10.8476C7.36894 10.4065 7.20172 9.9542 7.09878 9.48477C7.04261 9.21718 7.0032 8.94223 7.02622 8.66838C7.04445 8.45162 7.10891 8.2286 7.25881 8.06506C7.40633 7.90447 7.61996 7.82197 7.83193 7.7914ZM8.152 8.93983C8.07244 8.99324 7.98699 9.06267 7.97557 9.16469C7.96029 9.29968 8.00983 9.43099 8.06268 9.55272C8.19528 9.83781 8.38091 10.0949 8.58202 10.3354C8.77134 10.0492 8.99509 9.78642 9.24721 9.55364C9.05366 9.4728 8.852 9.41313 8.65974 9.32952C8.72843 9.22823 8.84813 9.1599 8.8811 9.03578C8.89767 8.95641 8.82051 8.90024 8.75421 8.87943C8.55734 8.81828 8.3288 8.82547 8.152 8.93983ZM15.2444 8.88182C15.1763 8.90392 15.1006 8.96801 15.127 9.04757C15.1678 9.16267 15.2739 9.23394 15.3472 9.32676C15.1559 9.41479 14.9522 9.47151 14.7584 9.55346C15.0098 9.78698 15.2349 10.0487 15.4235 10.3354C15.6139 10.1083 15.7885 9.8658 15.9207 9.60005C15.9831 9.46488 16.0456 9.31921 16.0301 9.16709C16.0203 9.07003 15.9422 9.00134 15.8673 8.94904C15.687 8.8251 15.4478 8.81552 15.2444 8.88182ZM11.8279 10.187C11.1763 10.2266 10.5443 10.5374 10.122 11.0363C9.70154 11.5188 9.47962 12.1719 9.53579 12.8109C9.58441 13.4466 9.90172 14.0542 10.3868 14.4664C10.8457 14.8623 11.4555 15.0737 12.0607 15.0555C12.7509 15.0472 13.4312 14.7323 13.8796 14.2069C14.2708 13.7603 14.4914 13.1667 14.4776 12.5724C14.4673 11.9308 14.1844 11.2999 13.7161 10.8617C13.2225 10.3783 12.5139 10.1371 11.8279 10.187Z" fill="#FFD15C"/>
<path d="M11.8024 2.50281C11.9374 2.50152 12.0724 2.50133 12.2076 2.50281C12.2188 2.80796 12.209 3.11367 12.2122 3.41901C12.2102 3.58421 12.2164 3.74958 12.2092 3.91478C12.0731 3.91975 11.9367 3.9203 11.8008 3.91423C11.7941 3.60207 11.8002 3.28992 11.798 2.97776C11.8008 2.81938 11.7925 2.661 11.8024 2.50281Z" fill="#F6B44C"/>
<path d="M8.56592 3.15197C8.69575 3.10575 8.82319 3.05142 8.95634 3.01477C9.11509 3.45271 9.27457 3.89065 9.43443 4.32821C9.3184 4.40059 9.18047 4.42785 9.05413 4.47849C9.03553 4.43963 9.0173 4.40041 9.00275 4.35971C8.86021 3.95602 8.70699 3.55621 8.56592 3.15197Z" fill="#F6B44C"/>
<path d="M15.0538 3.0144C15.1861 3.05234 15.3131 3.10556 15.443 3.15087C15.3067 3.54682 15.1559 3.93761 15.0168 4.33264C14.9995 4.38236 14.9787 4.43061 14.957 4.47849C14.8279 4.43393 14.6988 4.38899 14.5723 4.33742C14.7323 3.89636 14.8931 3.45547 15.0538 3.0144Z" fill="#F6B44C"/>
<path d="M11.662 4.42271C12.0525 4.39822 12.4442 4.4205 12.8327 4.45973C14.1823 4.60485 15.4876 5.12658 16.5694 5.94573C17.5646 6.69914 18.3768 7.69656 18.8957 8.83284C19.4213 9.96636 19.6523 11.2328 19.5733 12.4792C19.4863 13.9286 18.9683 15.3485 18.1007 16.5128C17.3399 17.5415 16.3149 18.3735 15.1499 18.9032C14.4563 19.2211 13.7134 19.4301 12.9565 19.5249C11.7318 19.6791 10.4694 19.5325 9.31525 19.0929C8.16847 18.6594 7.13293 17.9395 6.32225 17.0201C5.46111 16.0492 4.85429 14.8535 4.5856 13.5833C4.40107 12.7201 4.36755 11.8247 4.49168 10.9507C4.64564 9.83302 5.05835 8.75365 5.6821 7.81424C6.32022 6.85457 7.17731 6.04058 8.17197 5.45752C9.22759 4.8345 10.4372 4.47538 11.662 4.42271ZM7.83164 7.7914C7.61967 7.82198 7.40604 7.90448 7.25853 8.06507C7.10862 8.2286 7.04417 8.45163 7.02593 8.66838C7.00291 8.94223 7.04232 9.21719 7.09849 9.48477C7.20144 9.9542 7.36866 10.4065 7.55724 10.8476C7.68358 11.1347 7.81433 11.4205 7.96663 11.6949C8.0066 11.7588 7.97179 11.8339 7.9635 11.9017C7.77989 12.9341 8.00457 14.033 8.5845 14.9074C8.92667 15.4268 9.38671 15.868 9.9217 16.1857C10.5473 16.5603 11.2762 16.7597 12.0055 16.7575C12.5932 16.7583 13.1808 16.6292 13.7136 16.3811C14.6954 15.9299 15.4799 15.0735 15.8486 14.0584C16.1129 13.3404 16.1747 12.5485 16.0219 11.7986C16.0175 11.7789 16.0154 11.7592 16.0158 11.7395C16.3403 11.1314 16.6226 10.4962 16.8178 9.83358C16.9202 9.46728 17.0029 9.08827 16.9816 8.70558C16.9679 8.47354 16.9031 8.23174 16.7394 8.05918C16.5909 7.90043 16.3781 7.81903 16.1663 7.79048C15.8764 7.7531 15.5828 7.7903 15.299 7.85199C14.9315 7.93302 14.5755 8.05936 14.228 8.20282C13.9186 8.33266 13.6143 8.47575 13.3204 8.638C13.2788 8.6647 13.2287 8.67225 13.1819 8.65439C12.4497 8.43081 11.6539 8.42253 10.9162 8.62732C10.8622 8.64186 10.8092 8.66323 10.753 8.66783C10.6955 8.6496 10.6458 8.61424 10.5926 8.58735C10.1154 8.33818 9.62115 8.11921 9.10733 7.95789C8.69555 7.83579 8.26313 7.73671 7.83164 7.7914Z" fill="#F6B44C"/>
<path d="M5.74756 4.84498C5.84498 4.7483 5.95548 4.66598 6.05953 4.57703C6.08089 4.59839 6.10225 4.61975 6.12214 4.6424C6.34516 4.91073 6.57076 5.17703 6.79434 5.44498C6.85271 5.51662 6.91883 5.58255 6.96745 5.66174C6.86284 5.7483 6.76082 5.83835 6.6529 5.92123C6.3505 5.56303 6.05179 5.2017 5.74756 4.84498Z" fill="#F6B44C"/>
<path d="M17.6925 4.8706C17.7684 4.78275 17.8378 4.68938 17.9187 4.60577C18.0249 4.69196 18.1308 4.77907 18.2323 4.87097C17.9314 5.231 17.631 5.59159 17.3268 5.94887C17.217 5.86673 17.113 5.77704 17.0107 5.6857C17.2351 5.41148 17.4656 5.14242 17.6925 4.8706Z" fill="#F6B44C"/>
<path d="M3.72073 7.32583C3.77598 7.23688 3.82257 7.14277 3.88132 7.05603C4.24375 7.26119 4.60305 7.47242 4.96456 7.67942C5.01115 7.70575 5.05646 7.73412 5.10139 7.76303C5.03675 7.88292 4.96788 8.00023 4.89789 8.11699C4.52312 7.91054 4.15683 7.68844 3.78353 7.47868C3.74909 7.45879 3.71355 7.43946 3.68408 7.4122C3.68537 7.38016 3.70655 7.35327 3.72073 7.32583Z" fill="#F6B44C"/>
<path d="M19.4509 7.44167C19.6649 7.32251 19.8732 7.19305 20.089 7.07721C20.1592 7.19434 20.2305 7.31091 20.2933 7.43246C19.8889 7.67113 19.4809 7.9041 19.0734 8.13743C18.9994 8.02251 18.9332 7.90262 18.8677 7.78273C19.0583 7.66266 19.2575 7.55732 19.4509 7.44167Z" fill="#F6B44C"/>
<path d="M2.67179 10.1636C3.13496 10.2437 3.5985 10.3234 4.06074 10.4096C4.04196 10.5455 4.01618 10.6803 3.99039 10.815C3.52686 10.7363 3.06424 10.6527 2.60107 10.5711C2.61875 10.4343 2.64435 10.2986 2.67179 10.1636Z" fill="#F6B44C"/>
<path d="M11.8275 10.187C12.5135 10.1371 13.2222 10.3783 13.7157 10.8618C14.1841 11.2999 14.4669 11.9308 14.4773 12.5724C14.4911 13.1667 14.2704 13.7603 13.8793 14.2069C13.4308 14.7323 12.7505 15.0472 12.0603 15.0555C11.4552 15.0737 10.8454 14.8623 10.3865 14.4664C9.90138 14.0542 9.58407 13.4467 9.53545 12.8109C9.47928 12.1719 9.70119 11.5188 10.1216 11.0363C10.5439 10.5374 11.176 10.2266 11.8275 10.187Z" fill="#F6B44C"/>
<path d="M20.7781 10.2612C20.9518 10.2352 21.1225 10.1899 21.2978 10.1768C21.3177 10.3061 21.35 10.4339 21.3621 10.5643L21.356 10.5761C21.182 10.6184 21.0032 10.6394 20.8273 10.6741C20.5441 10.7229 20.2617 10.7763 19.9781 10.8223C19.9474 10.6888 19.9262 10.5531 19.9058 10.4175C20.1954 10.3599 20.4875 10.3142 20.7781 10.2612Z" fill="#F6B44C"/>
<path d="M19.9798 13.1802C20.4426 13.2564 20.904 13.3417 21.366 13.4231C21.3511 13.5603 21.3286 13.6975 21.2938 13.8312C20.8321 13.7478 20.369 13.6723 19.9082 13.5842C19.9279 13.4489 19.9526 13.3142 19.9798 13.1802Z" fill="#F6B44C"/>
<path d="M3.84541 13.2142C3.89348 13.2046 3.94228 13.2 3.99108 13.1954C4.01686 13.329 4.03878 13.4632 4.06235 13.5971C3.59882 13.6807 3.1351 13.7636 2.67082 13.8417C2.64338 13.708 2.62036 13.5733 2.59863 13.4387C3.01281 13.3571 3.43031 13.2918 3.84541 13.2142Z" fill="#F6B44C"/>
<path d="M18.873 16.2201C18.9401 16.1028 19.0003 15.9798 19.0791 15.8702C19.1996 15.9196 19.3053 15.9988 19.4202 16.0594C19.713 16.2294 20.008 16.3953 20.2986 16.5688C20.2366 16.6911 20.1683 16.8104 20.0931 16.9251C19.685 16.6927 19.2777 16.4586 18.873 16.2201Z" fill="#F6B44C"/>
<path d="M4.47264 16.1264C4.61426 16.0479 4.75091 15.9604 4.89474 15.8859C4.96804 16.0023 5.04152 16.1198 5.09879 16.2452C4.69179 16.4765 4.28903 16.7153 3.88093 16.9448C3.80745 16.8299 3.73765 16.712 3.67725 16.5895C3.93839 16.4286 4.20837 16.2822 4.47264 16.1264Z" fill="#F6B44C"/>
<path d="M17.0107 18.3154C17.1113 18.2225 17.2163 18.1341 17.3247 18.0505C17.6297 18.408 17.931 18.7688 18.2316 19.1301C18.1288 19.2203 18.026 19.3111 17.9163 19.3929C17.7137 19.1629 17.5212 18.9238 17.3223 18.6905C17.2187 18.5653 17.1106 18.4435 17.0107 18.3154Z" fill="#F6B44C"/>
<path d="M5.75244 19.1632C6.05152 18.801 6.35447 18.4415 6.65778 18.0828C6.76478 18.169 6.8703 18.2573 6.97399 18.3478C6.73789 18.6341 6.49664 18.9165 6.25926 19.2017C6.19351 19.2769 6.13587 19.3596 6.06091 19.4264C5.95778 19.3389 5.85097 19.2557 5.75244 19.1632Z" fill="#F6B44C"/>
<path d="M8.84307 20.0879C8.91582 19.9021 8.97107 19.7092 9.05394 19.5275C9.18359 19.5695 9.31103 19.6175 9.43829 19.6661C9.34344 19.9293 9.24676 20.1921 9.15118 20.4553C9.08322 20.6335 9.02687 20.8164 8.95155 20.9919C8.82245 20.9483 8.69501 20.9008 8.56738 20.8534C8.65431 20.5965 8.7521 20.3433 8.84307 20.0879Z" fill="#F6B44C"/>
<path d="M14.5703 19.6654C14.697 19.6133 14.8265 19.5684 14.9561 19.5242C15.1245 19.9621 15.2799 20.4054 15.4403 20.8465C15.3138 20.9019 15.1832 20.9479 15.0513 20.989C14.8913 20.5477 14.73 20.1069 14.5703 19.6654Z" fill="#F6B44C"/>
<path d="M11.8014 20.0877C11.9375 20.0847 12.0736 20.086 12.2097 20.0879C12.2158 20.3881 12.2106 20.6884 12.2123 20.9886C12.2103 21.1591 12.2167 21.3299 12.2088 21.5002C12.0727 21.5026 11.9364 21.5024 11.8003 21.5008C11.7944 21.1888 11.8 20.8766 11.7979 20.5647C11.8 20.4055 11.7935 20.2464 11.8014 20.0877Z" fill="#F6B44C"/>
<path d="M8.1519 8.9398C8.32869 8.82544 8.55724 8.81826 8.75411 8.8794C8.82041 8.90021 8.89757 8.95638 8.88099 9.03575C8.84803 9.15988 8.72832 9.2282 8.65963 9.32949C8.8519 9.4131 9.05355 9.47277 9.24711 9.55361C8.99499 9.78639 8.77123 10.0492 8.58192 10.3354C8.38081 10.0949 8.19517 9.83778 8.06258 9.55269C8.00972 9.43096 7.96018 9.29965 7.97547 9.16466C7.98689 9.06264 8.07234 8.99321 8.1519 8.9398Z" fill="white"/>
<path d="M15.2443 8.8818C15.4476 8.8155 15.6868 8.82508 15.8671 8.94902C15.9421 9.00132 16.0202 9.07002 16.0299 9.16707C16.0454 9.31919 15.983 9.46486 15.9205 9.60003C15.7883 9.86578 15.6137 10.1083 15.4233 10.3354C15.2347 10.0487 15.0097 9.78696 14.7583 9.55344C14.952 9.47149 15.1557 9.41477 15.3471 9.32674C15.2738 9.23392 15.1677 9.16265 15.1268 9.04755C15.1005 8.96799 15.1762 8.9039 15.2443 8.8818Z" fill="white"/>
</g>
<defs>
<clipPath id="clip0_113_3239">
<rect width="20" height="20" fill="white" transform="translate(2.00537 2.00098)"/>
</clipPath>
</defs>
</svg>
