<svg width="25" height="25" viewBox="0 0 25 25" fill="none" xmlns="http://www.w3.org/2000/svg">
<path d="M12.3145 21.6013C7.02245 21.6013 2.71445 17.2933 2.71445 12.0013C2.71445 6.70934 7.02245 2.40134 12.3145 2.40134C17.6065 2.40134 21.9145 6.70934 21.9145 12.0013C21.9145 17.2933 17.6065 21.6013 12.3145 21.6013ZM12.3145 0.00134277C5.67845 0.00134277 0.314453 5.36534 0.314453 12.0013C0.314453 18.6373 5.67845 24.0013 12.3145 24.0013C18.9505 24.0013 24.3145 18.6373 24.3145 12.0013C24.3145 5.36534 18.9505 0.00134277 12.3145 0.00134277ZM15.4225 7.20134L12.3145 10.3093L9.20645 7.20134L7.51445 8.89334L10.6225 12.0013L7.51445 15.1093L9.20645 16.8013L12.3145 13.6933L15.4225 16.8013L17.1145 15.1093L14.0065 12.0013L17.1145 8.89334L15.4225 7.20134Z" fill="white"/>
</svg>
