<svg width="25" height="24" viewBox="0 0 25 24" fill="none" xmlns="http://www.w3.org/2000/svg">
<path d="M17.9803 11.8011C18.0546 12.0919 17.9618 12.419 17.7206 12.6371L11.5054 18.726L8.44408 21.7249C8.12874 22.0521 7.62775 22.0884 7.25675 21.834C6.88569 21.5614 6.75576 21.0889 6.95984 20.6889L10.1881 14.3456L5.64265 12.8552C5.34574 12.7644 5.10455 12.5099 5.03034 12.2009C4.95607 11.9102 5.04889 11.5829 5.29008 11.3648L14.5665 2.27699C14.8819 1.94983 15.3829 1.91354 15.7539 2.16794C16.1249 2.44063 16.2549 2.9132 16.0508 3.313L12.8226 9.65628L17.368 11.1467C17.6649 11.2376 17.9061 11.4921 17.9803 11.8011Z" fill="#F7D30C"/>
<path d="M17.7206 12.6371L11.5054 18.726L11.5054 5.27608L14.5665 2.27699C14.8819 1.94983 15.3829 1.91354 15.7539 2.16794C16.1249 2.44063 16.2549 2.9132 16.0508 3.313L12.8226 9.65628L17.368 11.1467C17.6649 11.2376 17.9061 11.4921 17.9803 11.8011C18.0546 12.0919 17.9618 12.419 17.7206 12.6371Z" fill="#F7D30C"/>
</svg>
