<svg width="29" height="28" viewBox="0 0 29 28" fill="none" xmlns="http://www.w3.org/2000/svg">
<path d="M26.3047 15.7336C27.3791 9.19386 22.9486 3.02134 16.4089 1.9469C9.86916 0.872462 3.69664 5.30297 2.6222 11.8427C1.54776 18.3825 5.97827 24.555 12.518 25.6294C19.0578 26.7038 25.2303 22.2733 26.3047 15.7336Z" fill="#FCCD5C"/>
<path d="M10.4365 9.87415C11.1269 9.87415 11.6865 9.3145 11.6865 8.62415C11.6865 7.93379 11.1269 7.37415 10.4365 7.37415C9.74617 7.37415 9.18652 7.93379 9.18652 8.62415C9.18652 9.3145 9.74617 9.87415 10.4365 9.87415Z" fill="#252528"/>
<path d="M18.4971 9.87415C19.1874 9.87415 19.7471 9.3145 19.7471 8.62415C19.7471 7.93379 19.1874 7.37415 18.4971 7.37415C17.8067 7.37415 17.2471 7.93379 17.2471 8.62415C17.2471 9.3145 17.8067 9.87415 18.4971 9.87415Z" fill="#252528"/>
<path d="M14.4665 14.974C13.7512 14.9772 13.0503 14.773 12.4486 14.3861C11.847 13.9992 11.3704 13.4462 11.0765 12.794C11.0115 12.6481 11.0072 12.4824 11.0644 12.3333C11.1216 12.1842 11.2356 12.064 11.3815 11.999C11.5274 11.934 11.6931 11.9297 11.8422 11.9869C11.9913 12.044 12.1115 12.1581 12.1765 12.304C12.3747 12.7456 12.6963 13.1204 13.1026 13.3834C13.5089 13.6465 13.9825 13.7864 14.4665 13.7864C14.9505 13.7864 15.4242 13.6465 15.8305 13.3834C16.2368 13.1204 16.5584 12.7456 16.7565 12.304C16.8215 12.1581 16.9418 12.044 17.0908 11.9869C17.2399 11.9297 17.4056 11.934 17.5515 11.999C17.6974 12.064 17.8115 12.1842 17.8687 12.3333C17.9259 12.4824 17.9215 12.6481 17.8565 12.794C17.5627 13.4462 17.0861 13.9992 16.4844 14.3861C15.8827 14.773 15.1818 14.9772 14.4665 14.974Z" fill="#252528"/>
</svg>
