<svg width="18" height="17" viewBox="0 0 18 17" fill="none" xmlns="http://www.w3.org/2000/svg">
<path d="M3.36409 8.00149C4.3421 8.00149 5.13493 7.25529 5.13493 6.33482C5.13493 5.41434 4.3421 4.66815 3.36409 4.66815C2.38609 4.66815 1.59326 5.41434 1.59326 6.33482C1.59326 7.25529 2.38609 8.00149 3.36409 8.00149Z" fill="#FBB861"/>
<path d="M6.5516 5.3348C7.5296 5.3348 8.32243 4.58861 8.32243 3.66813C8.32243 2.74766 7.5296 2.00146 6.5516 2.00146C5.57359 2.00146 4.78076 2.74766 4.78076 3.66813C4.78076 4.58861 5.57359 5.3348 6.5516 5.3348Z" fill="#FBB861"/>
<path d="M10.8016 5.3348C11.7796 5.3348 12.5724 4.58861 12.5724 3.66813C12.5724 2.74766 11.7796 2.00146 10.8016 2.00146C9.82359 2.00146 9.03076 2.74766 9.03076 3.66813C9.03076 4.58861 9.82359 5.3348 10.8016 5.3348Z" fill="#FBB861"/>
<path d="M13.9891 8.00149C14.9671 8.00149 15.7599 7.25529 15.7599 6.33482C15.7599 5.41434 14.9671 4.66815 13.9891 4.66815C13.0111 4.66815 12.2183 5.41434 12.2183 6.33482C12.2183 7.25529 13.0111 8.00149 13.9891 8.00149Z" fill="#FBB861"/>
<path d="M12.4591 9.90813C11.8429 9.22813 11.3258 8.64813 10.7025 7.96813C10.3766 7.60813 9.95872 7.24813 9.46288 7.08813C9.38497 7.06146 9.30705 7.04146 9.22914 7.02813C9.05205 7.00146 8.8608 7.00146 8.67664 7.00146C8.49247 7.00146 8.30122 7.00146 8.11705 7.0348C8.03914 7.04813 7.96122 7.06813 7.8833 7.0948C7.38747 7.2548 6.97664 7.6148 6.64372 7.9748C6.02747 8.6548 5.51039 9.2348 4.88705 9.9148C3.95914 10.7881 2.81872 11.7548 3.03122 13.1081C3.23664 13.7881 3.75372 14.4615 4.68164 14.6548C5.19872 14.7548 6.84913 14.3615 8.6058 14.3615H8.7333C10.49 14.3615 12.1404 14.7481 12.6575 14.6548C13.5854 14.4615 14.1025 13.7815 14.3079 13.1081C14.5275 11.7481 13.3871 10.7815 12.4591 9.90813Z" fill="#FBB861"/>
</svg>
