<svg width="25" height="25" viewBox="0 0 25 25" fill="none" xmlns="http://www.w3.org/2000/svg">
<path fill-rule="evenodd" clip-rule="evenodd" d="M18.8329 21.397L21.0501 19.1798L20.2692 16.343L20.6094 15.5305L23.1768 14.0818V10.9464L20.6167 9.49173L20.2822 8.68067L21.0729 5.84235L18.8542 3.62683L16.017 4.40748L15.2064 4.06758L13.7576 1.5H10.6222L9.16748 4.06004L8.35661 4.39446L5.51874 3.60281L3.30346 5.81809L4.08424 8.65567L3.74433 9.46634L1.17676 10.9151V14.0496L3.73449 15.5076L4.06928 16.3193L3.27873 19.1572L5.49485 21.3733L8.33243 20.5925L9.1432 20.9325L10.592 23.499H13.7266L15.1835 20.9412L15.9951 20.6065L18.8329 21.397ZM19.0294 14.1256L18.1576 16.2078L18.813 18.5886L18.2446 19.157L15.8688 18.4951L13.7857 19.3542L12.5641 21.499H11.7597L10.5482 19.3529L8.46831 18.4808L6.08622 19.1362L5.51878 18.5688L6.18061 16.193L5.32158 14.1101L3.17676 12.8876V12.083L5.32386 10.8715L6.19595 8.79155L5.54051 6.40947L6.10677 5.84321L8.48252 6.50595L10.5663 5.64655L11.7861 3.5H12.5897L13.8012 5.6471L15.8812 6.5192L18.2637 5.86362L18.8326 6.43166L18.1709 8.80696L19.0302 10.8906L21.1768 12.1103V12.9139L19.0294 14.1256ZM12.1768 16.5C9.96762 16.5 8.17676 14.7091 8.17676 12.5C8.17676 10.2909 9.96762 8.5 12.1768 8.5C14.3859 8.5 16.1768 10.2909 16.1768 12.5C16.1768 14.7091 14.3859 16.5 12.1768 16.5ZM14.1768 12.5C14.1768 13.6046 13.2813 14.5 12.1768 14.5C11.0722 14.5 10.1768 13.6046 10.1768 12.5C10.1768 11.3954 11.0722 10.5 12.1768 10.5C13.2813 10.5 14.1768 11.3954 14.1768 12.5Z" fill="white"/>
</svg>
