<svg width="25" height="24" viewBox="0 0 25 24" fill="none" xmlns="http://www.w3.org/2000/svg">
<path d="M21.9532 9.80296C21.8223 9.42263 21.4631 9.1525 21.0381 9.11653L15.2656 8.62428L12.983 3.60673C12.8146 3.23901 12.4313 3.00098 12.0055 3.00098C11.5796 3.00098 11.1963 3.23901 11.028 3.60759L8.74533 8.62428L2.97188 9.11653C2.54768 9.15336 2.18939 9.42263 2.05771 9.80296C1.92602 10.1833 2.04764 10.6005 2.36854 10.8634L6.73189 14.4572L5.44524 19.78C5.35109 20.1714 5.51284 20.5759 5.85861 20.8107C6.04447 20.9368 6.26191 21.001 6.48118 21.001C6.67024 21.001 6.85778 20.9531 7.02609 20.8585L12.0055 18.0636L16.983 20.8585C17.3472 21.0643 17.8064 21.0455 18.1514 20.8107C18.4973 20.5752 18.6589 20.1705 18.5647 19.78L17.2781 14.4572L21.6415 10.8641C21.9624 10.6005 22.0849 10.184 21.9532 9.80296Z" fill="#FFC400"/>
</svg>
