<svg width="14" height="16" viewBox="0 0 14 16" fill="none" xmlns="http://www.w3.org/2000/svg">
<path d="M5.98094 2.00134H8.64761C9.01428 2.00134 9.31428 1.70134 9.31428 1.33467C9.31428 0.968007 9.01428 0.668007 8.64761 0.668007H5.98094C5.61428 0.668007 5.31428 0.968007 5.31428 1.33467C5.31428 1.70134 5.61428 2.00134 5.98094 2.00134ZM7.31428 5.33467C6.97428 5.33467 6.70094 5.59467 6.66094 5.92801L7.98094 7.24134V6.00134C7.98094 5.63467 7.68094 5.33467 7.31428 5.33467ZM7.31428 4.00134C9.89428 4.00134 11.9809 6.08801 11.9809 8.66801C11.9809 9.41467 11.8009 10.1213 11.4876 10.748L12.4676 11.728C13.0009 10.8347 13.3143 9.78801 13.3143 8.66801C13.3143 7.25467 12.8209 5.95467 12.0009 4.92801L12.5009 4.42801C12.7543 4.17467 12.7609 3.75467 12.5009 3.49467L12.4943 3.48801C12.2343 3.22801 11.8209 3.23467 11.5609 3.48801L11.0609 3.98801C10.0276 3.16134 8.72761 2.66801 7.31428 2.66801C6.20761 2.66801 5.16761 2.98801 4.26761 3.52801L5.23428 4.49467C5.86094 4.18134 6.56761 4.00134 7.31428 4.00134ZM12.7743 13.9213L1.89428 3.04134C1.63428 2.78134 1.21428 2.78134 0.954277 3.04134C0.694277 3.30134 0.694277 3.72134 0.954277 3.98134L2.33428 5.36134C1.72094 6.28134 1.34761 7.35467 1.31428 8.50801C1.22761 11.8947 3.94094 14.668 7.31428 14.668C8.54094 14.668 9.68094 14.3013 10.6343 13.668L11.8276 14.8613C12.0876 15.1213 12.5076 15.1213 12.7676 14.8613C13.0343 14.6013 13.0343 14.1813 12.7743 13.9213ZM7.31428 13.3347C4.73428 13.3347 2.64761 11.248 2.64761 8.66801C2.64761 7.80801 2.88094 7.00801 3.28761 6.32134L9.66761 12.7013C8.97428 13.1013 8.17428 13.3347 7.31428 13.3347Z" fill="#FECE35"/>
</svg>
