<svg width="17" height="17" viewBox="0 0 17 17" fill="none" xmlns="http://www.w3.org/2000/svg">
<path d="M4.46473 3.20874C4.20438 2.94839 3.78227 2.94839 3.52192 3.20874C3.26157 3.46909 3.26157 3.8912 3.52192 4.15154L7.37175 8.00137L3.52196 11.8512C3.26161 12.1115 3.26161 12.5336 3.52196 12.794C3.78231 13.0543 4.20442 13.0543 4.46477 12.794L8.31455 8.94418L12.1643 12.794C12.4247 13.0543 12.8468 13.0543 13.1071 12.794C13.3675 12.5336 13.3675 12.1115 13.1071 11.8512L9.25736 8.00137L13.1072 4.15154C13.3675 3.8912 13.3675 3.46909 13.1072 3.20874C12.8468 2.94839 12.4247 2.94839 12.1644 3.20874L8.31455 7.05856L4.46473 3.20874Z" fill="black"/>
</svg>
